FluxischElse-Bold.sfdir
StartChar: uni002B
Encoding: 43 43 12
Width: 533
GlyphClass: 2
Flags: W
LayerCount: 2
Fore
SplineSet
247.996 498 m 0
 249.996 499 261 499 275 499 c 0
 298 499 298 499 305 493 c 0
 309 490 314 486 315 483 c 0
 317 479 317 473 317 459 c 0
 317 446 318 437 320 430 c 0
 322 419 322 419 319 409 c 0
 316 400 316 397 316 364 c 0
 316 344 317 326 317 323 c 1
 318 320 321 315 325 312 c 1
 331 306 331 306 352 306 c 0
 368 306 374 307 380 309 c 0
 386 311 391 312 404 311 c 0
 417 311 421 310 433 306 c 0
 446 301 447 301 453 302 c 0
 456 303 463 305 469 307 c 0
 476 309 479 309 487 307 c 0
 492 306 498 304 501 303 c 0
 503 302 506 299 507 296 c 2
 509 294 510 291 510 289 c 0
 510 288 509 282 507 277 c 0
 505 272 504 267 505 265 c 1
 505 263 506 253 506 241 c 0
 506 220 506 220 501 213 c 0
 498 210 494 206 492 205 c 0
 490 204 483 203 474 203 c 0
 464 203 457 202 452 200 c 0
 446 198 444 198 437 200 c 0
 433 201 415 202 396 203 c 0
 376 203 361 204 358 205 c 0
 356 206 351 207 347 207 c 0
 343 207 338 206 336 205 c 0
 333 203 330 201 328 200 c 0
 325 199 322 197 320 195 c 0
 316 192 316 192 316 137 c 0
 316 89 316 80 318 73 c 0
 320 66 321 63 319 59 c 0
 318 56 317 48 316 42 c 0
 315 33 314 28 312 25 c 2
 305 18 l 1
 300 15 296.998 15.0557 267 14 c 0
 259.092 13.7217 252.9 13.5859 247.996 13.5859 c 0
 236.157 13.5859 231.829 14.293 229.001 15 c 0
 226.001 16 222.001 19 220.001 21 c 0
 218.001 24 216.001 27 215.001 29 c 0
 214.001 31 212.001 36 211.001 40 c 1
 211.001 43 209.001 47 208.001 48 c 1
 208.001 49 207.001 53 207.001 57 c 0
 207.001 62 208.001 70 210.001 75 c 1
 211.001 80 213.001 88 214.001 92 c 0
 216.001 98 216.001 101 214.001 108 c 0
 213.001 113 212.001 118 212.001 120 c 0
 212.001 122 213.001 127 215.001 132 c 0
 217.001 139 217.001 143 217.001 150 c 1
 216.001 155 215.001 163 215.001 168 c 0
 215.001 173 214.001 179 213.001 181 c 0
 212.001 183 212.001 187 212.001 189 c 0
 212.001 192 210.001 195 208.001 197 c 0
 205.001 200 202.001 200 188.001 201 c 0
 180.001 202 162.001 203 148.001 203 c 0
 135.001 203 105.001 203 83.001 202 c 0
 42.001 202 41.001 202 36.001 205 c 1
 33.001 206 29.001 210 27.001 212 c 1
 24.001 217 24.001 217 24.001 254 c 0
 24.001 289 24.001 292 27.001 296 c 1
 28.001 299 33.001 303 37.001 306 c 1
 43.001 309 47.001 311 53.001 311 c 1
 59.001 312 62.001 311 67.001 309 c 0
 73.001 306 76.001 305 83.001 306 c 1
 88.001 306 94.001 308 97.001 309 c 0
 99.001 310 104.001 312 106.001 312 c 0
 108.001 312 112.001 310 115.001 309 c 0
 119.001 307 126.004 307.08 155.001 306 c 0
 162.324 305.728 168.616 305.586 173.955 305.586 c 0
 186.844 305.586 194.172 306.293 197 307 c 0
 201 308 205 310 208 312 c 0
 212 316 212 316 212 328 c 0
 212 335 211 342 210 345 c 0
 209 348 209 351 209 353 c 0
 209 355 211 360 212 365 c 0
 214 372 214 378 213 391 c 0
 213 400 212 411 211 415 c 0
 209 420 209 425 210 440 c 0
 211 451 212 466 212 473 c 0
 212 484 213 488 215 491 c 0
 216 493 219 496 222 496 c 2
 224 497 230 498 235 497 c 1
 240 497 245.996 497 247.996 498 c 0
EndSplineSet
Validated: 33
EndChar
StartChar: uni002C
Encoding: 44 44 13
Width: 202
GlyphClass: 2
Flags: W
LayerCount: 2
Fore
SplineSet
121 115 m 1
 126 116 131 117 137 117 c 0
 142 117 150 115 154 114 c 0
 159 113 165 111 168 111 c 1
 171 110 175 108 178 106 c 0
 181 103 182 100 182 97 c 0
 182 94 181 89 179 85 c 0
 177 82 175 76 173 73 c 2
 168 63 l 1
 167 62 165 59 164 57 c 2
 163 56 159 49 157 42 c 0
 155 36 153 29 153 28 c 0
 153 27 149 21 145 16 c 0
 141 11 137 3 136 -1 c 0
 134 -6 132 -11 131 -14 c 1
 129 -16 126 -21 125 -25 c 2
 123 -28 121 -33 120 -37 c 0
 119 -40 116 -46 112 -49 c 1
 108 -53 105 -59 103 -61 c 1
 102 -64 101 -69 100 -72 c 1
 100 -75 98 -79 97 -82 c 0
 96 -84 93 -88 91 -89 c 1
 89 -91 86 -93 85 -94 c 1
 83 -95 77 -97 71 -98 c 0
 65 -99 53 -99 43 -99 c 0
 27 -99 26 -99 23 -96 c 0
 21 -93 20 -89 20 -78 c 0
 20 -65 21 -62 24 -55 c 0
 26 -50 29 -43 31 -40 c 1
 32 -36 35 -28 38 -22 c 1
 40 -15 43 -7 44 -3 c 0
 45 2 46 9 48 15 c 0
 49 20 52 29 54 34 c 0
 56 40 58 47 59 50 c 0
 60 53 61 58 62 61 c 1
 62 64 63 70 64 75 c 1
 66 79 67 84 67 86 c 0
 67 88 69 93 70 96 c 0
 72 100 75 105 78 107 c 2
 80 110 84 112 86 113 c 1
 102 113 l 2
 111 112 115 112 121 115 c 1
EndSplineSet
Validated: 33
EndChar
StartChar: uni0031
Encoding: 49 49 18
Width: 573
GlyphClass: 2
Flags: W
LayerCount: 2
Fore
SplineSet
297 723 m 0
 302 725 306 725 315 725 c 1
 321 724 327 723 329 722 c 1
 331 722 337 721 342 721 c 0
 347 721 354 722 358 723 c 0
 363 725 372 726 385 726 c 0
 405 726 405 726 409 722 c 0
 411 719 413 717 413 716 c 0
 413 715 415 711 416 708 c 1
 418 705 419 699 419 696 c 0
 419 692 418 686 417 681 c 0
 416 677 414 671 413 667 c 0
 412 662 412 658 414 650 c 0
 415 644 416 637 416 635 c 1
 415 633 414 626 413 621 c 0
 412 614 412 610 413 605 c 0
 414 602 416 599 416 598 c 1
 417 598 418 591 418 582 c 0
 418 570 417 565 415 558 c 0
 413 552 412 547 412 544 c 1
 413 542 414 537 416 534 c 0
 417 532 419 526 420 521 c 0
 421 517.5 421.5 515.25 421.5 512.875 c 0
 421.5 510.5 421 508 420 504 c 0
 419 499 418 490 418 484 c 0
 418 478 417 470 415 467 c 1
 414 463 413 456 412 451 c 1
 412 445 412 440 414 434 c 0
 416 426 416 425 414 419 c 0
 412 414 412 410 413 392 c 0
 414 380 415 367 415 363 c 2
 415 346 l 1
 415 323 l 2
 416 315 416 306 417 303 c 0
 418 298 417 294 415 286 c 0
 411 276 411 276 414 267 c 0
 415 262 417 255 417 253 c 2
 418 250 417 246 416 244 c 0
 414 241 413 237 413 235 c 0
 413 233 414 229 415 227 c 1
 417 225 418 219 418 212 c 0
 418 204 417 197 414 191 c 1
 412 182 411 181 413 172 c 0
 415 164 415 159 413 149 c 0
 412 141 412 132 412 127 c 0
 412 122 413 113 415 106 c 0
 417 96 418 91 417 76 c 0
 417 66 417 50 418 41 c 0
 419 31 419 22 419 19 c 1
 418 17 413 10 406 4 c 0
 398.316 -4.45215 396.537 -6.40918 388.867 -6.40918 c 0
 386.555 -6.40918 383.707 -6.23145 380 -6 c 0
 372 -6 359 -4 351 -4 c 0
 343 -3 327 -2 317 -2 c 0
 304 -1 297 -1 294 1 c 0
 292 2 288 4 284 7 c 0
 281 9 277 12 276 15 c 0
 275 17 274 21 274 24 c 0
 274 27 275 33 276 36 c 0
 278 41 278 50 279 66 c 0
 279 79 280 98 280 107 c 0
 280 119 280 129 279 135 c 0
 278 140 276 146 275 149 c 0
 273 153 274 154 276 162 c 0
 279 171 279 174 279 215 c 0
 279 255 279 260 277 268 c 0
 275 274 274 281 274 291 c 0
 274 302 275 308 277 314 c 0
 279 322 279 326 279 369 c 0
 278 406 278 419 276 428 c 0
 274 438 274 440 276 447 c 0
 278 453 278 459 278 479 c 0
 278 493 279 509 279 515 c 2
 280 521 281 535 282 546 c 0
 282 565 282 565 278 570 c 0
 275 574 273 575 267 575 c 1
 262 576 257 576 254 575 c 0
 250 574 246 571 241 567 c 0
 235 562 230 559 225 557 c 1
 220 556 214 553 210 551 c 0
 206 549 202 545 199 541 c 0
 197 537 192 532 189 530 c 0
 186 528 180 524 177 523 c 0
 173 521 168 517 165 515 c 0
 162 513 157 510 154 509 c 2
 151 507 144 505 138 503 c 0
 133 502 125 500 120 500 c 0
 113 500 110 501 106 503 c 1
 103 506 101 509 99 515 c 0
 98.1006 518.146 97.6064 520.081 97.6064 521.802 c 0
 97.6064 523.909 98.3486 525.697 100 529 c 0
 102 534 102 540 102 571 c 0
 102 602 103 608 105 612 c 0
 106 614 109 618 111 620 c 1
 114 621 120 626 125 630 c 0
 133 635 136 637 144 638 c 0
 149 638 157 640 161 642 c 0
 165 645 169 646 170 646 c 1
 176 650 l 2
 179 652 182 655 182 655 c 2
 183 656 186 658 191 660 c 1
 195 663 203 668 209 672 c 0
 216 677 221 680 221 680 c 1
 222 680 226 682 231 684 c 0
 235 686 240 688 241 689 c 1
 243 690 249 693 254 695 c 0
 260 698 265 702 266 703 c 0
 267 704 270 706 274 707 c 1
 277 709 283 712 286 715 c 0
 289 718 294 722 297 723 c 0
EndSplineSet
Validated: 33
EndChar
StartChar: uni0036
Encoding: 54 54 23
Width: 574
GlyphClass: 2
Flags: W
LayerCount: 2
Fore
SplineSet
316 376 m 1
 314 377 311 378 309 378 c 1
 307 377 304 377 301 375 c 0
 299 374 293 373 288 373 c 0
 283 373 276 372 271 371 c 0
 267 370 260 368 257 367 c 1
 253 367 246 364 242 361 c 0
 238 358 230 352 225 347 c 0
 220 343 215 337 214 335 c 0
 213 333 211 329 209 327 c 1
 208 325 205 320 204 316 c 1
 202 312 199 305 196 300 c 0
 194 296 190 287 188 282 c 0
 186 277 185 271 185 268 c 0
 185 266 186 261 187 257 c 0
 189 251 189 249 188 244 c 1
 186 240 186 235 187 228 c 2
 187 222 188 205 189 191 c 0
 190 165 190 165 195 156 c 0
 198 150 201 144 201 142 c 1
 202 139 206 134 212 128 c 0
 218 123 227 115 232 111 c 0
 238 107 247 102 254 100 c 0
 260 98 268 95 272 95 c 1
 275 94 282 92 286 91 c 0
 290.393 89.5361 294.249 88.6084 297.177 88.6084 c 0
 298.249 88.6084 299.196 88.7324 300 89 c 2
 303 89 308 91 310 92 c 0
 312 93 318 94 323 94 c 0
 328 94 334 95 336 96 c 0
 339 97 344 100 347 103 c 0
 349 106 353 109 355 110 c 0
 357 111 364 117 370 123 c 0
 377 129 385 138 388 143 c 2
 392 147 395 154 396 157 c 0
 397 161 399 166 400 169 c 1
 402 172 403 181 404 192 c 0
 405 201 406 214 407 219 c 0
 408.464 224.124 409.392 229.784 409.392 239.119 c 0
 409.392 242.536 409.268 246.445 409 251 c 0
 409 272 408 273 403 285 c 0
 400 292 397 301 397 305 c 1
 396 309 395 313 393 315 c 1
 392 317 389 321 387 325 c 0
 384 330 375 340 366 349 c 0
 352 362 348 366 343 367 c 0
 341 367 337 368 337 369 c 1
 336 370 331 371 327 372 c 0
 322 374 317 375 316 376 c 1
272 736 m 0
 282 741 282 741 321 741 c 0
 355 741 359 740 366 738 c 0
 372 736 378 735 386 735 c 0
 397 735 398 735 412 728 c 0
 419 724 428 719 430 717 c 0
 432 715 437 713 441 712 c 1
 445 712 452 709 456 707 c 0
 461 704 466 701 468 700 c 1
 469 698 472 696 474 695 c 2
 480 692 l 1
 481 691 484 688 486 685 c 1
 489 683 492 680 493 678 c 2
 494 677 497 671 500 665 c 0
 503 660 508 651 510 646 c 0
 512 641 515 633 518 628 c 2
 520 623 525 615 528 610 c 0
 532 604 534 599 534 596 c 0
 534 593 534 589 533 587 c 0
 532 585 530 581 527 578 c 0
 525 575 521 572 519 570 c 1
 515 568 511 567 464 567 c 0
 414 567 414 567 405 572 c 0
 400 575 395 579 394 580 c 1
 389 590 l 2
 388 593 386 600 385 604 c 1
 385 609 383 613 382 615 c 1
 380 617 377 619 374 621 c 1
 371 622 367 624 365 625 c 0
 363 626 360 627 359 628 c 2
 357 629 354 631 351 633 c 0
 347 636 344 637 331 637 c 0
 323 638 314 639 311 640 c 0
 308 641 299 642 291 643 c 0
 277 643 277 643 267 636 c 0
 261 632 253 628 248 626 c 0
 242 624 236 621 233 619 c 0
 231 618 225 613 221 609 c 0
 216 604 214 601 212 595 c 0
 211 591 208 582 206 575 c 0
 205 568 202 556 201 549 c 0
 200 542 198 531 197 526 c 0
 196 521 194 515 193 512 c 0
 192 510 189 504 187 499 c 0
 184 491 184 488 184 462 c 0
 184 436 184 433 187 430 c 1
 189 426 192 425 199 424 c 0
 207 422 207 422 219 428 c 0
 225 431 232 434 234 435 c 1
 235 436 240 440 244 443 c 0
 248 446 253 450 255 451 c 0
 257 452 260 453 262 453 c 1
 264 454 273 458 282 462 c 0
 297 470 297 470 316 471 c 0
 327 472 340 472 345 472 c 0
 350 472 362 472 372 471 c 0
 389 470 390 470 395 465 c 1
 399 463 408 459 417 455 c 0
 427 452 437 447 444 443 c 1
 449 439 457 434 459 431 c 1
 471 423 l 2
 475 421 483 414 488 408 c 0
 494 402 500 395 502 391 c 0
 503 388 506 383 509 379 c 0
 511 376 514 371 515 369 c 1
 517 367 519 360 520 354 c 1
 522 348 525 338 528 332 c 0
 531 326 534 320 534 319 c 2
 535 317 536 310 536 303 c 0
 536 294 537 287 539 280 c 0
 540 275 542 269 542 267 c 0
 542 264 543 257 545 252 c 1
 546 246 548 238 548 234 c 0
 548 229 547 224 546 222 c 1
 544 220 543 215 542 212 c 1
 542 208 540 202 538 198 c 0
 536 194 534 185 532 179 c 1
 531 173 530 164 530 160 c 0
 530 153 529 149 526 143 c 0
 523 138 521 133 520 131 c 1
 520 129 517 124 515 121 c 0
 512 118 508 111 505 107 c 0
 502 102 497 94 495 89 c 1
 492 84 489 79 486 78 c 1
 484 76 477 70 470 64 c 1
 464 57 454 49 449 46 c 0
 444 42 439 39 439 38 c 1
 438 38 436 36 433 34 c 0
 431 32 428 31 428 31 c 1
 427 31 421 28 413 24 c 0
 406 20 398 16 396 13 c 1
 393 11 388 8 384 6 c 1
 380 5 373 3 368 2 c 1
 363 2 357 0 354 -1 c 0
 351 -2 344 -3 337 -3 c 0
 328 -3 322 -4 315 -6 c 0
 310.562 -7.90234 307.732 -8.59863 304.217 -8.59863 c 0
 302.187 -8.59863 299.928 -8.36621 297 -8 c 0
 292 -8 280 -7 269 -7 c 0
 259 -7 244 -6 237 -5 c 2
 229 -5 221 -3 214 0 c 0
 208 3 196 7 188 10 c 0
 181 12 171 16 168 19 c 1
 164 21 158 25 154 26 c 1
 150 28 142 32 136 36 c 0
 130 39 122 45 119 49 c 0
 116 52 110 59 106 65 c 0
 103 70 98 76 96 79 c 0
 94 82 89 90 86 97 c 0
 82 104 77 115 75 122 c 0
 73 129 70 135 69 137 c 1
 68 138 67 140 66 142 c 1
 66 144 64 147 63 149 c 1
 62 150 61 153 60 156 c 1
 60 159 59 168 57 177 c 0
 56 185 55 194 54 195 c 1
 53 197 51 202 50 207 c 0
 49 212 46 218 44 221 c 0
 42 224 40 228 40 230 c 2
 39 232 40 237 41 240 c 0
 42 243 43 248 43 250 c 0
 43 251 42 255 41 257 c 0
 39 261 39 270 38 306 c 0
 38 330 38 357 39 365 c 0
 40 373 42 384 43 388 c 0
 44 393 45 399 45 401 c 0
 45 403 43 408 42 413 c 1
 39 421 39 421 42 428 c 0
 44 433 45 439 45 450 c 0
 45 463 45 465 49 472 c 0
 51 477 52 481 52 484 c 1
 51 487 52 491 53 493 c 1
 53 495 55 500 55 503 c 2
 56 507 58 518 59 528 c 0
 61 538 63 548 64 549 c 0
 65 550 66 555 68 561 c 0
 69 566 71 573 72 575 c 0
 74 578 78 584 82 589 c 0
 85 593 90 601 92 605 c 0
 95 610 96 614 96 616 c 0
 96 617 99 624 103 632 c 0
 107 640 111 648 112 651 c 1
 114 654 119 659 126 664 c 0
 134 670 139 675 143 680 c 0
 146 685 150 690 153 693 c 0
 155 695 167 701 178 707 c 0
 194 715 201 717 207 718 c 1
 212 718 218 720 219 721 c 2
 221 722 225 724 228 726 c 0
 232 728 238 730 248 730 c 0
 258 731 265 733 272 736 c 0
EndSplineSet
Validated: 33
EndChar
StartChar: uni004A
Encoding: 74 74 43
Width: 488
GlyphClass: 2
Flags: W
LayerCount: 2
Fore
SplineSet
304 725 m 1
 306 725 310 726 312 726 c 0
 315 726 321 724 325 722 c 0
 333 719 335 718 361 718 c 0
 388 717 388 717 394 713 c 0
 397 710 401 708 403 707 c 1
 404 706 408 703 409 701 c 0
 411 698 413 694 413 693 c 0
 413 691 413 689 414 689 c 1
 415 688 417 685 419 682 c 0
 421 678 423 674 423 671 c 0
 423 668 422 662 420 658 c 0
 418 651 418 649 420 644 c 1
 421 639 422 623 422 594 c 0
 422.5 579.5 422.75 568.5 422.75 560.75 c 0
 422.75 553 422.5 548.5 422 547 c 0
 421 545 420 540 420 536 c 0
 420 533 420 526 421 521 c 0
 423 513 423 511 420 504 c 0
 417 495 417 495 420 487 c 0
 423 479 421.95 475.995 423 370 c 0
 424 269 424 260 426 256 c 1
 428 254 429 250 429 248 c 0
 429 246 427 241 425 237 c 0
 422 231 422 228 423 208 c 0
 423 190 422 184 421 179 c 1
 419 175 418 168 418 162 c 1
 417 157 416 148 414 142 c 0
 413 137 410 129 409 125 c 0
 408 120 404 113 401 108 c 0
 397 102 395 96 394 92 c 0
 393 88 392 82 390 79 c 2
 389 76 384 70 380 65 c 0
 375 60 371 56 371 55 c 0
 371 54 370 51 368 48 c 1
 365 46 362 43 360 42 c 0
 358 41 352 36 348 32 c 0
 344 27 336 21 332 19 c 0
 327 17 321 14 318 14 c 1
 316 13 311 12 309 11 c 0
 307 10 300 7 295 5 c 0
 290 3 282 1 278 -1 c 1
 273 -2 261 -3 244 -4 c 0
 227 -4 215 -6 211 -7 c 0
 207 -8 199 -9 191 -9 c 0
 184 -9 177 -8 177 -8 c 1
 176 -7 170 -5 163 -3 c 2
 157 0 149 2 145 2 c 1
 141 3 136 4 132 5 c 0
 129 6 123 7 120 7 c 0
 116 7 113 8 109 12 c 0
 106 15 101 18 98 20 c 0
 96 22 93 23 92 23 c 0
 91 23 86 28 80 34 c 0
 74 39 68 44 67 44 c 0
 66 44 60 50 53 57 c 0
 45 64 38 73 36 77 c 0
 34 81 31 88 31 92 c 1
 30 96 28 100 28 101 c 1
 27 101 24 107 22 114 c 0
 19 121 17 129 16 135 c 1
 16 140 14 148 13 151 c 0
 12 155 10 159 10 160 c 1
 9 160 8 172 8 186 c 0
 8 204 8 212 9 213 c 0
 10 214 12 219 13 223 c 0
 14 228 16 231 17 232 c 1
 19 233 26 233 38 232 c 0
 57 231 57 231 65 236 c 0
 70 240 73 241 76 240 c 1
 79 240 82 239 85 239 c 1
 88 238 90 238 92 240 c 0
 94 242 95 244 95 245 c 0
 95 246 97 248 99 249 c 0
 102 251 105 253 107 253 c 0
 109 253 112 252 114 250 c 1
 117 249 121 247 123 245 c 0
 126 243 130 240 131 238 c 1
 133 237 136 232 138 229 c 1
 139 226 141 218 142 212 c 0
 143 204 143 197 142 190 c 0
 141 185 141 176 141 171 c 1
 142 166 144 157 146 150 c 0
 149 142 152 136 155 133 c 0
 157 130 163 126 168 124 c 0
 173 122 179 119 181 117 c 0
 183 115 188 112 192 111 c 2
 196 109 200 107 203 107 c 2
 205 106 210 107 216 109 c 0
 223 112 227 112 233 112 c 0
 238 112 242 111 243 110 c 1
 243 109 246 109 249 109 c 0
 253 109 255 110 259 116 c 1
 264 121 266 125 267 130 c 0
 268 134 269 141 270 145 c 0
 271 149 273 155 275 159 c 0
 277 165 277 170 277 186 c 2
 277 217 l 1
 277 269 l 2
 277 299 277 311 275 315 c 0
 274 318 273 327 273 342 c 0
 273 359 274 366 275 370 c 0
 276 373 278 380 278 387 c 0
 278 395 278 402 276 408 c 0
 274 416 274 419 276 422 c 1
 277 425 277 435 277 444 c 0
 278 453 277 464 276 468 c 0
 275 472 274 478 274 483 c 2
 273 487 274 493 275 499 c 0
 276 505 277 508 276 510 c 1
 275 511 274 519 275 527 c 0
 275 539 274 543 272 546 c 0
 270 549 270 552 271 562 c 0
 271 569 273 579 274 583 c 0
 275 587 276 605 277 622 c 0
 278 635 278.5 643.5 278.5 649.625 c 0
 278.5 655.75 278 659.5 277 663 c 0
 276 670 276 674 277 680 c 0
 278 685 280 693 282 698 c 0
 285 705 287 710 293 715 c 2
 297 720 302 724 304 725 c 1
EndSplineSet
Validated: 33
EndChar
StartChar: uni004D
Encoding: 77 77 46
Width: 840
GlyphClass: 2
Flags: W
LayerCount: 2
Fore
SplineSet
88 724 m 1
 90 724 108.001 724 128.001 723 c 0
 149.001 723 171.001 722 178.001 722 c 0
 184.001 722 193.001 722 197.001 721 c 1
 201.001 721 208.001 722 214.001 723 c 0
 219.001 724 230.001 725 238.001 725 c 0
 249.001 725 254.001 724 256.001 722 c 1
 258.001 721 262.001 718 264.001 716 c 0
 267.001 714 269.001 708 272.001 699 c 0
 275.001 692 278.001 681 279.001 676 c 0
 280.001 671 283.001 662 285.001 657 c 0
 287.001 652 290.001 645 292.001 641 c 0
 293.001 638 295.001 634 295.001 632 c 0
 295.001 631 297.001 624 300.001 617 c 0
 303.001 607 305.001 600 306.001 591 c 0
 307.001 583 308.001 578 310.001 575 c 0
 312.001 573 314.001 568 315.001 564 c 0
 316.001 561 318.001 553 319.001 547 c 0
 320.001 539 322.001 534 325.001 529 c 1
 328.001 526 330.001 521 330.001 517 c 1
 331.001 513 333.001 506 336.001 502 c 0
 339.001 497 340.001 492 340.001 488 c 0
 340.001 485 341.001 479 343.001 476 c 0
 345.001 472 347.001 467 348.001 463 c 1
 348.001 459 350.001 456 350.001 455 c 1
 351.001 454 352.001 450 353.001 446 c 1
 353.001 442 355.001 437 356.001 434 c 0
 357.001 432 358.001 427 358.001 422 c 1
 359.001 418 361.001 412 362.001 409 c 1
 364.001 406 366.001 399 367.001 394 c 0
 368.001 389 370.001 382 370.001 378 c 1
 371.001 375 372.001 371 373.001 368 c 0
 374.001 366 376.001 360 378.001 356 c 1
 379.001 352 381.001 344 381.001 338 c 1
 382.001 332 385.001 322 387.001 315 c 0
 389.001 309 393.001 298 396.001 292 c 0
 399.001 285 402.001 272 404.001 262 c 0
 406.001 251 408.001 241 409.001 239 c 0
 410.001 236 411.001 231 412.001 228 c 0
 414.001 221 415.001 221 420.001 221 c 0
 425.001 221 427.001 222 431.001 227 c 1
 433.001 231 436.001 236 436.001 239 c 1
 437.001 242 439.001 249 441.001 253 c 0
 443.001 258 445.001 264 445.001 267 c 0
 445.001 269 446.001 273 447.001 275 c 0
 448.001 277 450.001 281 452.001 284 c 1
 453.001 288 455.001 293 455.001 297 c 0
 455.001 300 456.001 307 457.001 311 c 0
 458.001 316 461.001 325 464.001 332 c 0
 466.001 339 469.001 350 471.001 356 c 0
 473.001 362 475.001 370 476.001 375 c 0
 477.001 379 478.001 384 478.001 385 c 0
 478.001 386 481.001 392 483.001 397 c 0
 486.001 403 489.001 412 490.001 416 c 0
 491.001 420 492.001 428 492.001 432 c 1
 493.001 436 495.001 444 497.001 448 c 0
 499.001 452 501.001 459 502.001 464 c 1
 502.001 469 504.001 475 505.001 479 c 1
 507.001 483 508.001 487 509.001 488 c 1
 511.001 492 l 1
 511.001 493 512.001 497 514.001 500 c 1
 515.001 504 517.001 511 518.001 515 c 0
 519.001 519 520.001 524 522.001 527 c 0
 523.001 529 525.001 534 527.001 538 c 2
 528.001 542 530.001 547 530.001 549 c 0
 530.001 550 532.001 558 536.001 566 c 1
 539.001 575 542.001 585 543.001 589 c 1
 543.001 593 545.001 600 546.001 604 c 1
 548.001 608 550.001 613 550.001 614 c 1
 551.001 614 552.001 618 553.001 622 c 0
 554.001 625 556.001 630 557.001 633 c 0
 558.001 636 560.001 641 561.001 645 c 1
 561.001 649 563.001 657 565.001 663 c 2
 566.001 669 569.001 677 571.001 681 c 0
 572.001 684 576.001 692 580.001 697 c 0
 583.001 702 588.001 708 591.001 711 c 0
 594.001 713 600.001 717 606.001 719 c 0
 615.001 722 618.001 722 651.001 722 c 0
 671.001 723 689.001 723 693.001 724 c 1
 696.001 724 711.001 724 727.001 723 c 0
 750.001 722 757.001 721 761.001 719 c 0
 766.001 717 768.001 715 772.001 706 c 0
 776.001 698 777.001 695 777.001 687 c 2
 777.001 647 l 1
 777.001 607 l 1
 776.001 602 776.001 578 776.001 553 c 0
 776.001 529 777.001 489 777.001 464 c 0
 778.001 434 778.001 418 780.001 415 c 1
 781.001 411 781.001 406 781.001 398 c 1
 780.001 391 779.001 378 778.001 370 c 0
 776.829 363.557 776.344 357.113 776.344 350.469 c 0
 776.344 345.771 776.586 340.972 777 336.001 c 0
 777 326.001 777 303.001 776 284.001 c 0
 775.586 273.231 775.343 265.035 775.343 258.275 c 0
 775.343 248.716 775.828 242.029 777 235 c 2
 777 227 779 214 780 208 c 0
 780.5 204 780.75 199 780.75 192.75 c 0
 780.75 186.5 780.5 179 780 170 c 0
 779.5 162.5 779.25 153.75 779.25 144.875 c 0
 779.25 136 779.5 127 780 119 c 0
 780 105 781 85 781 74 c 0
 781 60 780 54 779 51 c 0
 778 49 777 44 777 39 c 0
 777 33 775 27 773 23 c 2
 772 18 768 12 765 8 c 0
 762 4 758 1 755 0 c 0
 753 -1 747 -2 742 -2 c 2
 735 -3 731 -3 727 -1 c 0
 723 1 721 1 714 0 c 1
 708 -2 705 -2 700 0 c 1
 697 0 690 2 685 2 c 1
 680 3 674 4 671 6 c 0
 669 8 665 12 663 15 c 0
 660.333 19 659.444 20.7773 659.444 28.6289 c 0
 659.444 32.5547 659.667 37.999 660 45.999 c 0
 660.244 51.8604 660.414 56.6855 660.414 60.8115 c 0
 660.414 70.7715 659.707 76.6357 659 83 c 0
 657 92 657 96 658 100 c 0
 659 103 659 140 660 188 c 0
 660 250 661 273 662 277 c 1
 664 281 664 283 662 290 c 0
 661 295 661 302 661 311 c 1
 662 318 662 328 662 333 c 2
 662 428 l 2
 662 496 662 517 664 529 c 0
 665 538 666 546 665 549 c 0
 664 551 663 556 662 558 c 0
 661 561 661 566 661 568 c 0
 661 571 660 575 659 577 c 0
 658 579 657 581 656 580 c 2
 651 575 l 2
 649 572 647 569 647 568 c 1
 647 568 645 564 642 560 c 0
 639 556 636 550 634 547 c 1
 633 543 631 535 631 530 c 1
 630 524 628 518 627 515 c 1
 625 513 624 508 623 505 c 1
 623 502 620 492 616 484 c 2
 613 475 610 466 608 463 c 0
 607 461 606 455 605 451 c 1
 605 447 604 442 603 442 c 1
 603 441 601 436 599 430 c 0
 597 424 594 418 593 416 c 1
 591 414 589 408 588 403 c 0
 586 397 585 390 584 386 c 0
 583 382 581 375 580 372 c 0
 579 368 577 362 576 357 c 0
 575 353 572 343 569 335 c 0
 566 327 564 320 563 319 c 0
 562 318 560 314 558 310 c 0
 556 307 554 300 553 296 c 0
 552 292 551 287 550 285 c 0
 549 283 547 278 547 274 c 1
 546 270 545 265 544 262 c 1
 542 259 542 254 542 250 c 0
 542 245 540 240 539 236 c 1
 537 232 535 227 535 224 c 1
 534 222 533 217 532 214 c 1
 530 211 528 205 527 202 c 0
 525 198 524 195 524 194 c 1
 524 194 523 190 521 187 c 1
 520 184 518 179 517 176 c 1
 517 173 514 165 511 158 c 0
 509 151 506 141 505 137 c 0
 504 132 502 123 499 117 c 1
 497 111 494 105 494 102 c 1
 493 100 491 96 488 93 c 0
 484 89 483 86 482 78 c 0
 482 73 481 64 481 59 c 0
 481 53 480 48 478 44 c 0
 476 40 474 37 474 37 c 2
 473 36 472 34 472 32 c 1
 471 30 469 25 468 22 c 0
 466 17 463 13 459 11 c 0
 455 8 448 4 443 2 c 0
 434 -3 432 -3 418 -3 c 0
 410 -3 400 -2 395 -1 c 0
 390 0 384 1 380 1 c 0
 376 1 371 3 367 5 c 0
 362 7 359 10 357 15 c 2
 355 18 352 25 350 29 c 0
 348 34 346 39 345 42 c 0
 344 44 343 51 343 57 c 1
 342 62 341 69 340 72 c 0
 339 75 336 81 335 87 c 0
 334 92 332 103 331 111 c 0
 330 120 328 127 327 129 c 1
 325 130 323 135 321 140 c 0
 320 144 318 150 317 153 c 1
 317 156 315 161 314 163 c 0
 312 166 310 172 309 178 c 0
 308 183 306 192 305 197 c 1
 303 202 302 209 301 212 c 1
 301 215 299 220 298 224 c 1
 296 227 295 232 295 233 c 0
 295 235 292 244 289 254 c 0
 285 264 280 279 278 287 c 2
 275 294 272 305 270 310 c 1
 269 315 267 323 267 327 c 1
 266 331 264 337 263 340 c 0
 262 343 259 350 258 355 c 2
 256 360 255 367 254 370 c 1
 254 374 252 379 251 381 c 0
 250 384 248 389 248 392 c 1
 247 395 245 399 245 399 c 1
 244 399 242 403 240 406 c 1
 239 410 237 416 237 419 c 0
 237 422 235 431 233 438 c 0
 230 446 228 453 227 453 c 1
 226 454 225 457 225 460 c 0
 225 463 224 468 223 471 c 0
 222 474 220 481 219 486 c 1
 217 490 216 496 215 497 c 1
 214 499 212 505 211 510 c 0
 210 515 209 523 208 527 c 0
 207 531 205 537 203 539 c 1
 202 542 198 551 194 558 c 0
 190 566 187 573 187 574 c 0
 187 575 186 577 184 579 c 1
 183 581 181 582 179 582 c 0
 178 582 176 580 175 578 c 0
 174 576 174 571 175 566 c 2
 175 561 176 556 176 553 c 0
 176 551 175 540 175 528 c 0
 174 517 173 505 173 503 c 1
 172 501 171 495 171 490 c 2
 171 477 l 1
 171 455 l 2
 171 446 171 434 170 428 c 0
 168 421 168 417 170 410 c 1
 170 406 171 393 171 383 c 0
 171.5 377.5 171.75 370.75 171.75 364.125 c 0
 171.75 357.5 171.5 351 171 346 c 0
 171 336 172 325 172 321 c 0
 173 316 173 309 172 299 c 0
 171 292 169 284 169 283 c 1
 168 282 167 280 166 278 c 1
 166 276 166 272 168 269 c 1
 169 265 170 259 170 246 c 0
 170 235 170 225 172 217 c 0
 174 206 174 206 171 192 c 0
 168 180 168 177 170 170 c 0
 171 166 171 161 171 158 c 1
 170 156 169 135 169 113 c 0
 168 89 167 69 167 66 c 1
 166 62 165 56 166 50 c 1
 166 45 166 37 165 32 c 0
 164 27 162 20 161 16 c 0
 160 13 157 9 156 7 c 1
 154 5 150 3 147 2 c 1
 143 2 138 0 135 -1 c 0
 132 -2 125 -3 120 -4 c 1
 115 -4 103 -4 94 -3 c 0
 80 -2 78 -2 71 3 c 0
 67 6 64 10 64 10 c 1
 64 11 63 13 62 14 c 0
 61 15 59 20 57 24 c 1
 56 29 55 38 55 54 c 0
 55 67 55 95 54 117 c 0
 54 139 53 166 53 178 c 0
 54 191 55 204 56 208 c 0
 57 213 57 219 56 231 c 0
 55 239 55 249 55 252 c 2
 55 297 l 2
 55 328 55 337 57 342 c 0
 59 348 59 350 57 355 c 0
 56 359 55 368 54 375 c 0
 53 387 54 390 57 400 c 0
 60 411 60 412 60 481 c 0
 60 520 61 560 62 570 c 0
 62 580 63 593 63 597 c 0
 63 602 63 608 62 611 c 1
 62 621 l 1
 62 649 l 2
 62 661 62 676 63 683 c 2
 63 689 64 696 64 699 c 1
 65 701 66 705 67 708 c 0
 68 710 69 713 71 715 c 0
 72 716 76 719 79 720 c 2
 82 722 86 723 88 724 c 1
EndSplineSet
Validated: 33
EndChar
StartChar: uni0069
Encoding: 105 105 74
Width: 243
GlyphClass: 2
Flags: W
LayerCount: 2
Fore
SplineSet
106 509 m 0
 108.343 510.172 110.688 510.657 114.438 510.657 c 0
 117.089 510.657 120.444 510.415 125.001 510.001 c 0
 133.001 510.001 144.001 509.001 149.001 508.001 c 1
 154.001 506.001 161.001 506.001 165.001 506.001 c 0
 171.001 506.001 173.001 505.001 176.001 502.001 c 1
 177.001 500.001 180.001 496.001 181.001 492.001 c 2
 183.001 489.001 184.001 482.001 185.001 478.001 c 0
 186.001 474.001 187.001 467.001 188.001 462.001 c 0
 190.001 456.001 190.001 452.001 189.001 450.001 c 0
 188.001 448.001 187.001 440.001 187.001 433.001 c 0
 186.001 425.001 186.001 413.001 187.001 406.001 c 2
 187.001 399.001 188.001 391.001 189.001 389.001 c 0
 190.001 387.001 191.001 373.001 191.001 359.001 c 0
 191.001 338.001 190.001 332.001 188.001 322.001 c 0
 185.857 315.034 184.862 311.801 184.862 307.068 c 0
 184.862 302.97 185.608 297.747 187.001 288.001 c 0
 189.001 276.001 190.001 262.001 190.001 256.001 c 2
 191.001 249.001 190.001 243.001 188.001 234.001 c 0
 186.099 227.661 185.402 223.331 185.402 212.092 c 0
 185.402 205.604 185.635 196.812 186.001 184.001 c 0
 186.001 154.001 187.001 143.001 189.001 137.001 c 0
 190.001 133.001 191.001 126.001 191.001 123.001 c 0
 191.001 119.001 190.001 113.001 189.001 109.001 c 0
 186.001 102.001 186.001 101.001 188.001 95.001 c 1
 190.001 92.001 191.001 88.001 191.001 86.001 c 0
 191.001 84.001 190.001 78.001 189.001 73.001 c 1
 187.001 69.001 186.001 60.001 186.001 53.001 c 0
 186.001 47.001 186.001 38.001 187.001 34.001 c 0
 188.001 28.001 188.001 26.001 184.001 19.001 c 0
 182.001 14.001 179.001 9.00098 177.001 7.00098 c 0
 174.001 4.00098 171.001 3.00098 168.001 3.00098 c 0
 165.001 3.00098 159.001 4.00098 154.001 7.00098 c 1
 146.001 10.001 144.001 10.001 137.001 9.00098 c 0
 131.001 8.00098 123.001 7.00098 114.001 8.00098 c 0
 103.001 9.00098 98.001 8.00098 90.001 6.00098 c 0
 82.001 4.00098 80.001 4.00098 74.001 6.00098 c 0
 71.001 7.00098 66.001 10.001 63.001 14.001 c 0
 58.001 20.001 58.001 20.001 59.001 38.001 c 0
 60.001 48.001 60.001 60.001 61.001 64.001 c 2
 61.001 68.001 61.001 75.001 62.001 79.001 c 0
 63.001 84.001 62.001 88.001 61.001 92.001 c 1
 59.001 96.001 58.001 106.001 58.001 157.001 c 0
 58.001 210.001 59.001 218.001 61.001 222.001 c 0
 62.001 225.001 63.001 230.001 63.001 234.001 c 0
 63.001 237.001 62.001 243.001 61.001 246.001 c 0
 59.001 250.001 59.001 259.001 58.001 294.001 c 2
 58.001 359.001 l 2
 58.001 371.001 59.001 384.001 60.001 389.001 c 0
 62.001 397.001 61.001 399.001 59.001 406.001 c 0
 57.8291 410.102 57.3438 413.173 57.3438 416.621 c 0
 57.3438 419.06 57.5859 421.687 58 425 c 0
 58 431 59 439 59 444 c 0
 59 448 58 460 58 470 c 0
 58 486 59 490 61 495 c 1
 63 498 65 502 67 503 c 1
 69 505 73 506 85 506 c 0
 95 506 102 507 106 509 c 0
133.002 730 m 0
 138.002 731 143.001 732 144.001 732 c 0
 146.001 732 154.001 731 162.001 730 c 0
 171.001 728 178.001 727 180.001 725 c 0
 182.001 723 185.001 720 187.001 716 c 0
 190.001 711 190.001 707 190.001 670 c 0
 190.001 632 190.001 630 187.001 624 c 0
 185.001 621 182.001 617 179.001 616 c 2
 176.001 614 170.001 612 164.001 611 c 0
 158.001 610 153.001 610 149.001 611 c 0
 146.001 612 137.001 613 130.001 613 c 0
 121.001 613 115.001 612 108.001 610 c 0
 100.001 607 95.001 607 87.001 607 c 1
 81.001 608 74.001 609 72.001 611 c 2
 69.001 612 65.001 615 63.001 617 c 0
 60.001 619 57.001 624 56.001 629 c 2
 53.001 634 53.001 640 53.001 650 c 0
 53.001 658 54.001 667 55.001 671 c 0
 56.001 675 57.001 683 57.001 688 c 0
 57.001 693 56.001 701 55.001 705 c 1
 53.001 709 53.001 714 53.001 717 c 1
 54.001 719 57.001 723 59.001 725 c 0
 63.1465 728.455 64.4277 729.522 74.3916 729.522 c 0
 78.8477 729.522 85.04 729.309 94.002 729 c 0
 111.002 729 128.002 729 133.002 730 c 0
EndSplineSet
Validated: 33
EndChar
StartChar: uni006A
Encoding: 106 106 75
Width: 257
GlyphClass: 2
Flags: W
LayerCount: 2
Fore
SplineSet
83 511 m 0
 91 515 92 515 105 515 c 0
 113 514 130 514 143 514 c 0
 156 514 169 514 173 515 c 0
 174.416 515.236 175.554 515.36 176.531 515.36 c 0
 179.695 515.36 181.181 514.056 185 511 c 0
 189 508 191 504 193 498 c 0
 195 491 196 480 196 419 c 0
 196 351 196 349 193 343 c 0
 191 339 190 334 190 330 c 0
 190 326 191 320 193 317 c 1
 195 312 195 303 195 245 c 2
 195 125 l 1
 195 60 l 2
 195 54 194 46 193 43 c 1
 193 39 192 34 193 32 c 1
 193 29 194 18 195 7 c 0
 196 -4 197 -20 197 -28 c 0
 197.293 -30.3428 197.414 -33.1152 197.414 -36.04 c 0
 197.414 -43.1006 196.707 -51.0498 196 -56 c 0
 195 -64 193 -74 191 -78 c 0
 189 -82 187 -89 187 -96 c 0
 187 -102 186 -109 185 -111 c 2
 185 -114 183 -119 182 -122 c 0
 180 -126 175 -133 170 -138 c 0
 166 -143 159 -150 156 -154 c 1
 152 -158 148 -162 143 -165 c 0
 136 -168 124 -186 70 -188 c 0
 67.333 -188.099 64.7607 -188.146 62.2773 -188.146 c 0
 10.7471 -188.146 -2 -167.725 -2 -162 c 0
 -2 -158 -1 -153 0 -149 c 1
 2 -145 2 -142 1 -139 c 0
 0 -136 0 -131 0 -128 c 0
 0 -125 1 -119 2 -116 c 0
 3 -113 6 -108 9 -105 c 0
 11 -103 15 -99 18 -98 c 0
 20 -97 24 -96 26 -96 c 0
 28 -96 32 -95 35 -95 c 1
 37 -94 43 -90 47 -87 c 1
 51 -83 56 -77 57 -74 c 2
 59 -71 61 -66 61 -62 c 1
 65 -50 l 1
 68 -46 68 -39 68 2 c 0
 68.2676 12.7188 68.3926 21.1387 68.3926 27.915 c 0
 68.3926 46.4307 67.4639 52.6797 66 60 c 0
 64 69 64 72 66 84 c 0
 67 91 68 107 68 119 c 0
 68 136 67 141 65 146 c 0
 64 150 63 156 63 162 c 0
 63 168 64 175 65 179 c 0
 66 183 67 191 67 201 c 0
 67 210 68 225 69 233 c 0
 70 247 70 251 68 259 c 0
 66 266 66 274 66 290 c 0
 66 302 66 317 67 324 c 2
 67 330 68 347 68 361 c 0
 68.3662 369.419 68.5977 375.023 68.5977 379.188 c 0
 68.5977 386.402 67.9023 389.294 66 395 c 0
 63 403 63 405 64 415 c 0
 65 422 66 429 67 432 c 0
 68 435 69 443 69 449 c 0
 69 456 68 466 67 471 c 0
 66 477 66 482 67 489 c 0
 68 495 70 500 72 503 c 0
 74 505 79 509 83 511 c 0
74 736 m 2
 77 738 80 739 80 739 c 1
 80 739 83 738 87 737 c 0
 93 735 102 734 139 734 c 0
 178 734 183 733 187 731 c 0
 189 730 192 726 194 723 c 0
 196 720 199 715 200 712 c 0
 201 708 202 699 202 684 c 0
 201 668 201 659 199 654 c 1
 198 649 196 642 196 637 c 1
 195 630 194 628 190 624 c 0
 185 619 185 619 153 619 c 0
 136 618 121 618 120 618 c 1
 119 617 116 617 112 616 c 1
 108 616 102 615 98 615 c 2
 94 614 89 614 86 614 c 0
 83 614 79 615 78 616 c 2
 76 616 73 619 71 620 c 1
 69 622 67 626 65 628 c 1
 64 630 62 636 61 641 c 0
 59 649 58 652 60 666 c 0
 61 678 61 686 60 697 c 0
 59 708 59 714 60 718 c 0
 61 721 63 726 65 729 c 0
 67 732 71 735 74 736 c 2
EndSplineSet
Validated: 33
EndChar
StartChar: uni0075
Encoding: 117 117 86
Width: 581
GlyphClass: 2
Flags: W
LayerCount: 2
Fore
SplineSet
150 509 m 0
 153 510 158.002 511 159.002 511 c 1
 161.002 510 166.002 509 171.002 507 c 0
 175.002 505 181.002 502 183.002 500 c 0
 186.002 498 189.002 495 191.002 492 c 0
 192.002 490 194.002 486 194.002 483 c 0
 194.002 480 193.002 475 191.002 472 c 1
 190.002 469 189.002 465 189.002 462 c 0
 189.002 460 190.002 455 191.002 452 c 0
 192.002 448 194.002 441 194.002 436 c 2
 195.002 430 196.002 423 196.002 421 c 2
 197.002 418 197.002 413 196.002 407 c 0
 196.002 403 194.002 394 194.002 389 c 1
 193.002 383 191.002 373 190.002 365 c 0
 188.002 353 188.002 352 191.002 345 c 0
 192.002 341 194.002 335 194.002 332 c 0
 194.002 329 192.002 324 191.002 322 c 0
 189.002 318 188.002 312 188.002 302 c 0
 188.002 293 188.002 284 189.002 282 c 0
 190.002 279 191.002 273 192.002 267 c 1
 192.002 261 192.002 255 191.002 251 c 0
 189.002 245 189.002 243 191.002 239 c 0
 193.002 236 194.002 231 194.002 228 c 0
 194.002 226 192.002 219 190.002 214 c 0
 187.002 204 187.002 204 190.002 187 c 0
 191.002 175 192.002 169 190.002 163 c 1
 189.002 157 190.002 155 191.002 151 c 0
 192.002 148 194.002 144 195.002 141 c 0
 196.002 139 199.002 134 201.002 130 c 1
 204.002 127 208.002 120 211.002 115 c 1
 213.002 110 216.002 105 218.002 103 c 1
 219.002 100 222.002 97 224.002 95 c 2
 225.002 93 229.002 90 232.002 89 c 0
 235.002 88 244.002 88 262.002 88 c 0
 270.055 88.3662 275.562 88.5986 279.651 88.5986 c 0
 286.734 88.5986 289.564 87.9023 294.002 86 c 0
 299.002 84 303.002 84 307.002 85 c 2
 311.002 85 317.002 87 321.002 89 c 0
 326.002 91 333.002 97 344.002 108 c 0
 352.002 117 361.002 126 362.002 129 c 1
 364.002 131 366.002 134 366.002 135 c 0
 366.002 136 367.002 139 368.002 142 c 0
 369.002 144 371.002 151 373.002 158 c 0
 375.002 165 377.002 174 377.002 181 c 1
 376.002 188 376.002 197 376.002 203 c 0
 376.002 208 376.002 217 377.002 223 c 1
 377.002 231 377.002 234 375.002 239 c 0
 374.002 242 373.002 246 373.002 248 c 0
 373.002 250 374.002 253 375.002 254 c 1
 375.002 255 376.002 260 377.002 265 c 1
 377.002 271 378.002 283 378.002 293 c 0
 379.002 308 379.002 311 376.002 320 c 0
 373.002 330 373.002 331 375.002 340 c 0
 376.002 345 377.002 354 377.002 360 c 0
 377.002 366 376.002 373 375.002 377 c 0
 373.002 382 373.002 388 374.002 405 c 0
 374.002 417 375.002 428 375.002 430 c 0
 375.002 431 374.002 443 374.002 456 c 0
 373.002 476 373.002 480 375.002 486 c 0
 377.002 490 379.002 495 381.002 497 c 1
 383.002 498 387.002 502 391.002 504 c 0
 395.439 505.902 397.063 506.599 409.634 506.599 c 0
 416.892 506.599 427.798 506.366 445.001 506 c 0
 487.001 506 493.001 505 497.001 503 c 0
 500.001 501 503.001 497 506.001 492 c 0
 511.001 483 511.001 482 511.001 468 c 0
 511.001 457 510.001 451 508.001 445 c 0
 506.001 440 505.001 433 505.001 426 c 0
 505.001 420 506.001 411 507.001 407 c 0
 508.001 403 509.001 397 508.001 395 c 1
 508.001 392 508.001 378 507.001 364 c 0
 507.001 349 506.001 327 506.001 315 c 0
 506.001 299 507.001 292 508.001 287 c 1
 510.001 283 510.001 277 510.001 265 c 0
 510.001 255 509.001 245 508.001 240 c 1
 506.099 234.928 505.402 230.258 505.402 218.091 c 0
 505.402 211.066 505.635 201.543 506.001 188 c 0
 507.001 154 507.001 144 509.001 141 c 0
 511.001 138 511.001 131 511.001 114 c 0
 511.001 96 512.001 89 514.001 84 c 0
 515.001 81 516.001 74 517.001 68 c 1
 517.001 60 516.001 55 514.001 47 c 0
 512.001 41 511.001 32 511.001 26 c 0
 511.001 18 511.001 17 506.001 12 c 0
 501.001 7 501.001 7 487.001 7 c 0
 478.001 7 457.001 8 438.001 8 c 0
 406.001 9 405.001 9 401.001 13 c 0
 398.001 15 396.001 19 394.001 26 c 0
 393.001 31 392.001 41 391.001 48 c 0
 390.001 55 388.001 60 387.001 62 c 1
 385.001 64 382.001 66 380.001 67 c 0
 378.001 68 374.001 69 370.001 69 c 0
 366.001 69 364.001 68 356.001 59 c 0
 351.001 54 344.001 45 340.001 41 c 2
 337.001 37 332.001 31 330.001 29 c 0
 328.001 27 324.001 24 322.001 22 c 0
 320.001 20 315.001 17 311.001 15 c 1
 308.001 12 301.001 10 297.001 9 c 0
 292.001 8 287.001 6 285.001 5 c 1
 283.001 3 277.001 2 271.001 2 c 0
 265.001 2 258.001 1 255.001 -1 c 1
 252.173 -1.70703 248.345 -2.41406 241.041 -2.41406 c 0
 238.016 -2.41406 234.395 -2.29297 230.001 -2 c 0
 219.001 -2 209.001 -1 206.001 0 c 0
 204.001 1 200.001 1 196.001 1 c 0
 193.001 1 187.001 3 181.001 4 c 1
 176.001 6 170.001 9 167.001 10 c 0
 164.001 11 156.001 15 150.001 18 c 0
 143.001 21 134.001 26 130.001 29 c 0
 126.001 31 120.001 36 117.001 39 c 0
 114.001 43 109.001 49 106.001 52 c 0
 102.001 56 98.001 59 98.001 59 c 1
 97.001 59 94.001 61 90.001 65 c 0
 87.001 68 83.001 73 82.001 76 c 0
 81.001 79 79.001 86 78.001 93 c 1
 78.001 100 77.001 106 75.001 108 c 0
 73.001 111 71.001 115 69.001 119 c 0
 66.001 124 66.001 127 66.001 141 c 0
 66.001 154 66.001 159 64.001 162 c 0
 62.001 166 62.001 171 62.001 183 c 0
 61.001 193 60.001 204 59.001 208 c 0
 57.8291 212.101 57.3438 215.515 57.3438 220.454 c 0
 57.3438 223.946 57.5859 228.201 58 234 c 0
 59 243 61 255 62 260 c 0
 64 268 64 269 62 275 c 0
 60 280 60 283 61 294 c 0
 61.5 298.5 61.75 303.25 61.75 308.625 c 0
 61.75 314 61.5 320 61 327 c 0
 60 338 59 351 59 356 c 2
 59 397 l 2
 60 415 60 433 60 438 c 2
 60 450 l 2
 60 453 59 461 58 469 c 0
 57.5 475 57.25 478.75 57.25 481.5 c 0
 57.25 484.25 57.5 486 58 488 c 1
 60 491 62 495 65 498 c 0
 67 500 71 503 74 504 c 1
 77 506 85 507 111 507 c 0
 138 507 145 507 150 509 c 0
EndSplineSet
Validated: 33
EndChar
StartChar: uni00A1
Encoding: 161 161 97
Width: 307
GlyphClass: 2
Flags: W
LayerCount: 2
Fore
SplineSet
132 476 m 0
 139 482 139.001 481.999 160.001 481.999 c 0
 176.001 480.999 183.001 479.999 189.001 477.999 c 0
 193.001 476.999 198.001 473.999 199.001 471.999 c 0
 200.001 469.999 202.001 463.999 202.001 455.999 c 0
 202.294 453.949 202.415 451.041 202.415 447.627 c 0
 202.415 439.385 201.708 428.192 201.001 419 c 0
 200.668 411 200.445 405.667 200.445 401.741 c 0
 200.445 393.89 201.334 391.667 204.001 385 c 0
 207.001 377 207.001 375 206.001 371 c 1
 205.001 369 203.001 364 202.001 360 c 0
 201.001 354 201.001 352 204.001 343 c 0
 207.001 333 207.001 330 207.001 311 c 2
 207.001 284 l 1
 207.001 221 l 2
 208.001 167 209.001 164 211.001 159 c 0
 213.251 155.25 214.376 153.75 214.376 135.094 c 0
 214.376 128.875 214.251 120.75 214.001 110 c 0
 213.001 85 212.001 64 211.001 62 c 1
 211.001 61 211.001 56 212.001 51 c 0
 213.001 47 214.001 38 214.001 31 c 0
 214.001 23 214.001 17 212.001 13 c 0
 211.001 10 209.001 8 208.001 7 c 0
 207.001 6 202.001 6 196.001 6 c 0
 191.001 6 185.001 5 184.001 4 c 1
 183.415 3.70703 182.486 3.58594 181.214 3.58594 c 0
 178.143 3.58594 173.071 4.29297 166 5 c 0
 157 6 145 7 139 7 c 0
 127 7 127 7 121 13 c 0
 118 16 114 20 113 22 c 0
 112 24 110 31 109 38 c 0
 108.5 41.5 108.25 46.25 108.25 51.25 c 0
 108.25 56.25 108.5 61.5 109 66 c 0
 109 76 111 83 112 87 c 1
 114 90 115 97 116 104 c 1
 116 161 l 2
 115 187 113 213 112 223 c 0
 110 241 110 243 112 249 c 0
 113 253 114 260 114 264 c 0
 114 269 115 277 116 283 c 0
 118 290 118 296 117 298 c 1
 117 300 116 312 117 324 c 0
 117 339 118 349 119 352 c 0
 120 355 121 363 121 377 c 0
 120 388 120 401 120 406 c 0
 120 411 121 426 121 439 c 0
 121 455 122 465 123 467 c 0
 124 469 128 473 132 476 c 0
142.001 669.999 m 0
 154.001 670.999 172.001 670.999 183.001 670.999 c 0
 195.001 669.999 203.001 668.999 206.001 667.999 c 0
 209.001 666.999 212.001 663.999 213.001 661.999 c 0
 213.501 660.999 213.751 656.749 213.751 649.124 c 0
 213.751 641.499 213.501 630.499 213.001 615.999 c 0
 212.001 572.999 212.001 572.999 207.001 567.999 c 0
 204.001 564.999 200.001 560.999 197.001 559.999 c 0
 192.001 557.999 190.001 557.999 182.001 558.999 c 1
 176.001 560.999 163.001 560.999 149.001 560.999 c 0
 126.001 560.999 126.001 560.999 121.001 566.999 c 1
 118.001 568.999 115.001 574.999 113.001 578.999 c 0
 109.001 584.999 109.001 586.999 109.001 621.999 c 0
 110.001 653.999 110.001 657.999 112.001 661.999 c 1
 114.001 663.999 116.001 666.999 118.001 667.999 c 0
 120.001 668.999 130.001 669.999 142.001 669.999 c 0
EndSplineSet
Validated: 33
EndChar
StartChar: uni00A7
Encoding: 167 167 103
Width: 497
GlyphClass: 2
Flags: W
LayerCount: 2
Fore
SplineSet
262 433 m 0
 254 436 250 437 237 437 c 2
 216 437 l 2
 214 437 209 435 207 433 c 0
 204 431 202 429 201 429 c 1
 201 429 196 426 192 422 c 2
 187 419 182 414 181 411 c 1
 179 409 175 404 171 400 c 0
 167 396 163 390 162 388 c 0
 161 385 161 379 161 374 c 0
 161 370 160 363 159 361 c 0
 157 358 156 354 156 352 c 0
 156 350 158 344 160 339 c 0
 162 333 166 326 169 322 c 0
 172 318 177 313 179 311 c 0
 182 309 185 306 186 305 c 0
 187 304 194 300 201 297 c 0
 209 293 219 289 224 288 c 2
 229 286 237 284 241 283 c 0
 243 282.5 245.75 282.25 248.5 282.25 c 0
 251.25 282.25 254 282.5 256 283 c 0
 262 284 264 285 279 300 c 0
 288 308 296 318 298 320 c 1
 299 323 301 329 303 334 c 1
 304 339 306 342 306 342 c 1
 307 342 309 346 310 349 c 0
 312 353 314 361 315 367 c 0
 315.5 370 315.75 373.25 315.75 376.125 c 0
 315.75 379 315.5 381.5 315 383 c 2
 315 385 313 390 311 392 c 1
 310 394 308 397 307 399 c 0
 306 401 304 404 303 406 c 0
 302 409 298 412 294 414 c 0
 290 416 283 420 279 423 c 0
 275 426 267 431 262 433 c 0
240 691 m 0
 245 692 252.001 693 256.001 694 c 1
 259.001 694 262.001 693 263.001 692 c 1
 264.001 692 267.001 690 269.001 690 c 2
 273.001 688 277.001 688 286.001 690 c 0
 292.001 691 298.001 691 301.001 691 c 0
 303.001 691 308.001 689 313.001 686 c 0
 320.001 683 323.001 682 331.001 682 c 0
 340.001 682 343.001 681 353.001 677 c 0
 359.001 674 364.001 672 365.001 672 c 0
 366.001 672 370.001 670 373.001 669 c 0
 377.001 667 380.001 664 382.001 661 c 1
 383.001 658 384.001 652 384.001 649 c 0
 384.001 645 386.001 639 387.001 635 c 0
 390.001 627 390.001 627 384.001 614 c 0
 379.001 605 377.001 602 374.001 601 c 0
 371.001 600 366.001 600 359.001 601 c 0
 353.001 602 346.001 604 344.001 605 c 0
 341.001 606 338.001 609 336.001 610 c 0
 333.001 612 327.001 614 322.001 615 c 0
 316.001 616 305.001 616 298.001 616 c 0
 289.001 616 281.001 617 275.001 618 c 1
 269.001 620 261.001 620 250.001 620 c 0
 236.001 620 231.001 619 220.001 615 c 0
 207.001 611 206.001 611 202.001 605 c 0
 200.001 601 198.001 598 198.001 597 c 1
 198.001 597 196.001 595 194.001 592 c 0
 191.001 588 191.001 586 191.001 572 c 0
 192.001 556 192.001 556 197.001 552 c 0
 200.001 549 204.001 544 206.001 540 c 2
 209.001 537 211.001 533 211.001 532 c 1
 211.001 532 212.001 530 214.001 528 c 0
 216.001 526 222.001 523 228.001 521 c 0
 234.001 519 243.001 515 249.001 512 c 0
 256.001 508 260.001 507 269.001 506 c 0
 276.001 505 283.001 503 286.001 502 c 0
 289.001 501 292.001 499 292.001 498 c 1
 293.001 498 298.001 496 303.001 495 c 0
 309.001 493 318.001 491 323.001 489 c 0
 329.001 487 336.001 483 339.001 481 c 2
 353.001 471 l 2
 357.001 468 364.001 465 370.001 463 c 0
 375.001 461 380.001 458 382.001 456 c 0
 383.001 455 385.001 452 386.001 450 c 2
 390.001 442 l 2
 391.001 440 395.001 435 397.001 431 c 0
 400.001 426 404.001 419 406.001 415 c 0
 408.001 410 410.001 405 410.001 396 c 0
 410.001 390 411.001 382 412.001 380 c 0
 413.001 378 414.001 373 414.001 370 c 0
 414.001 367 413.001 363 412.001 361 c 1
 411.001 360 410.001 354 409.001 349 c 0
 408.001 344 406.001 337 405.001 333 c 1
 403.001 329 398.001 320 393.001 314 c 0
 388.001 308 382.001 301 380.001 299 c 0
 378.001 297 372.001 292 367.001 286 c 1
 361.001 281 356.001 276 355.001 276 c 1
 355.001 276 351.001 273 348.001 270 c 0
 344.001 267 341.001 262 340.001 260 c 0
 339.001 258 339.001 256 340.001 254 c 0
 341.001 252 344.001 248 347.001 245 c 0
 350.001 243 352.001 240 352.001 239 c 1
 352.001 239 357.001 236 362.001 234 c 0
 368.001 232 375.001 228 378.001 225 c 0
 382.001 221 384.001 217 385.001 214 c 0
 386.001 212 388.001 207 390.001 203 c 0
 392.001 200 395.001 196 398.001 193 c 0
 400.001 191 403.001 187 404.001 184 c 2
 406.001 182 408.001 176 409.001 171 c 0
 410.001 166 412.001 162 412.001 161 c 1
 413.001 160 414.001 154 414.001 147 c 0
 414.001 139 413.001 133 410.001 126 c 2
 403.001 105 l 2
 402.001 100 399.001 92 396.001 89 c 1
 394.001 85 392.001 82 392.001 81 c 1
 391.001 81 389.001 77 386.001 73 c 0
 384.001 70 379.001 63 376.001 59 c 0
 374.001 55 368.001 49 365.001 46 c 0
 361.001 42 356.001 39 354.001 38 c 0
 352.001 37 349.001 37 347.001 37 c 0
 345.001 37 342.001 36 340.001 35 c 0
 338.001 34 334.001 31 331.001 30 c 2
 328.001 28 321.001 24 314.001 22 c 2
 308.001 19 297.001 16 291.001 15 c 0
 285.001 14 278.001 12 275.001 11 c 1
 272.001 9 266.001 8 254.001 8 c 2
 212.001 8 l 2
 197.001 9 184.001 9 183.001 10 c 1
 181.001 11 175.001 12 170.001 13 c 1
 165.001 13 156.001 15 152.001 17 c 0
 147.001 19 137.001 22 130.001 23 c 0
 123.001 25 114.001 27 110.001 29 c 2
 106.001 30 100.001 32 97.001 33 c 0
 94.001 34 91.001 37 89.001 39 c 1
 88.001 41 86.001 47 85.001 51 c 0
 84.001 56 83.001 65 84.001 73 c 0
 84.001 80 85.001 88 86.001 90 c 2
 86.001 93 88.001 97 90.001 100 c 2
 91.001 104 94.001 106 96.001 107 c 1
 106.001 107 l 1
 110.001 106 117.001 104 121.001 101 c 0
 125.001 99 131.001 96 135.001 95 c 0
 138.001 94 142.001 93 142.001 93 c 1
 143.001 92 150.001 89 158.001 87 c 0
 171.001 82 173.001 82 191.001 82 c 0
 201.001 82 215.001 83 221.001 85 c 1
 227.001 86 238.001 87 246.001 88 c 0
 260.001 89 261.001 89 273.001 97 c 0
 279.001 102 287.001 107 288.001 109 c 2
 290.001 111 292.001 116 293.001 120 c 0
 294.001 124 295.001 129 296.001 131 c 0
 297.001 133 298.001 139 298.001 145 c 0
 298.001 153 297.001 156 295.001 162 c 1
 293.001 165 288.001 171 284.001 175 c 0
 280.001 179 273.001 185 270.001 188 c 0
 267.001 190 259.001 194 252.001 197 c 0
 246.001 199 237.001 201 234.001 202 c 0
 231.001 203 220.001 207 210.001 211 c 0
 201.001 215 191.001 220 190.001 222 c 1
 188.001 223 185.001 225 184.001 225 c 2
 182.001 226 175.001 227 168.001 228 c 0
 160.001 229 152.001 231 147.001 233 c 0
 143.001 235 138.001 237 137.001 239 c 1
 136.001 240 132.001 242 127.001 243 c 1
 122.001 245 117.001 248 111.001 253 c 0
 106.001 257 98.001 264 94.001 268 c 0
 91.001 271 86.001 277 84.001 281 c 0
 83.001 284 81.001 289 81.001 292 c 1
 80.001 295 79.001 300 77.001 302 c 1
 76.001 304 74.001 310 73.001 315 c 0
 72.001 320 70.001 327 70.001 331 c 1
 69.001 335 68.001 343 66.001 348 c 0
 64.8291 352.101 64.3438 354.828 64.3438 357.39 c 0
 64.3438 359.201 64.5859 360.929 65 363 c 0
 66 366 70 375 73 382 c 0
 76 389 79 396 80 398 c 1
 81 399 83 403 85 406 c 0
 87 410 89 414 90 415 c 2
 91 417 96 423 103 429 c 0
 109 435 117 441 120 442 c 0
 124 444 129 448 133 452 c 0
 136 455 139 460 140 462 c 1
 140 464 140 468 139 469 c 1
 138 471 136 475 133 479 c 0
 131 482 122 490 115 495 c 0
 107 501 100 507 98 510 c 0
 96 512 94 518 93 523 c 1
 86 541 l 1
 83 545 81 551 80 553 c 0
 79 555 79 559 79 563 c 1
 80 567 81 574 81 580 c 1
 82 585 84 593 85 597 c 0
 86 600 88 606 89 610 c 2
 91 614 92 619 93 623 c 0
 94 626 97 631 99 633 c 0
 102 636 109 642 116 647 c 2
 122 653 130 658 133 660 c 0
 136 662 140 663 141 663 c 0
 142 663 148 665 155 668 c 0
 161 671 169 676 173 678 c 1
 176 681 182 683 186 684 c 2
 189 686 201.01 686.901 212 688 c 0
 222 689 235 690 240 691 c 0
EndSplineSet
Validated: 33
EndChar
StartChar: uni00A8
Encoding: 168 168 104
Width: 251
GlyphClass: 2
Flags: W
LayerCount: 2
Fore
SplineSet
184 717 m 2
 186 718 196.999 718 209.999 718 c 0
 228.999 718 231.999 718 235.999 716 c 0
 238.999 714 241.999 711 242.999 710 c 0
 244.999 707 245.999 701 245.999 688 c 0
 246.999 678 246.999 669 247.999 668 c 1
 247.999 668 247.999 661 245.999 653 c 0
 244.999 646 242.999 637 240.999 635 c 2
 239.999 633 236.999 630 234.999 628 c 0
 232.999 626 229.999 624 226.999 623 c 0
 225.757 622.586 224.515 622.343 222.917 622.343 c 0
 220.657 622.343 217.687 622.828 213 624 c 0
 208 625 199 626 195 626 c 0
 190 626 184 627 181 628 c 1
 178 630 174 632 173 635 c 0
 172 637 169 643 168 648 c 2
 165 656 165 659 165 673 c 0
 166 682 167 693 169 698 c 2
 170 704 173 709 176 712 c 0
 179 715 182 717 184 717 c 2
27.999 719 m 0
 30.999 721 34.999 722 36.999 722 c 0
 38.999 722 44.999 721 50.999 720 c 1
 55.999 718 62.999 716 65.999 715 c 0
 68.999 714 71.999 712 72.999 712 c 1
 74.999 711 76.999 708 77.999 705 c 2
 79.999 702 80.999 697 80.999 689 c 0
 80.999 682 81.999 675 82.999 672 c 0
 85.999 666 85.999 665 82.999 658 c 0
 81.999 654 80.999 649 80.999 647 c 0
 80.999 645 79.999 641 77.999 638 c 2
 76.999 635 73.999 631 71.999 629 c 0
 68.999 627 65.999 626 54.999 626 c 0
 46.999 626 37.999 625 33.999 625 c 0
 28.999 624 23.999 623 21.999 624 c 2
 19.999 624 15.999 627 12.999 630 c 0
 8.99902 633 6.99902 638 3.99902 647 c 0
 0.999023 657 -0.000976562 661 -0.000976562 676 c 0
 -0.000976562 689 0.999023 695 1.99902 698 c 0
 2.99902 700 7.99902 705 11.999 708 c 2
 15.999 712 20.999 715 21.999 716 c 0
 22.999 717 25.999 718 27.999 719 c 0
EndSplineSet
Validated: 33
EndChar
StartChar: uni00B2
Encoding: 178 178 110
Width: 258
GlyphClass: 2
Flags: W
LayerCount: 2
Fore
SplineSet
112 729 m 2
 163.001 728.999 l 2
 188.001 728.999 188.001 728.999 198.001 722.999 c 1
 203.001 720.999 208.001 717.999 208.001 716.999 c 1
 209.001 716.999 213.001 713.999 217.001 710.999 c 0
 222.001 707.999 228.001 701.999 231.001 697.999 c 0
 234.001 693.999 238.001 688.999 239.001 686.999 c 1
 239.001 684.999 242.001 676.999 244.001 668.999 c 0
 246.001 661.999 249.001 653.999 250.001 650.999 c 1
 252.001 647.999 252.001 639.999 252.001 621.999 c 0
 252.001 596.999 252.001 596.999 247.001 586.999 c 0
 244.001 581.999 242.001 575.999 242.001 574.999 c 0
 242.001 573.999 241.001 569.999 239.001 566.999 c 0
 237.001 562.999 234.001 557.999 231.001 555.999 c 0
 228.001 552.999 224.001 546.999 222.001 542.999 c 0
 220.001 538.999 216.001 534.999 211.001 532.999 c 1
 208.001 529.999 202.001 526.999 199.001 523.999 c 0
 196.001 520.999 191.001 516.999 188.001 514.999 c 0
 184.001 512.999 180.001 507.999 177.001 504.999 c 2
 173.001 498.999 l 1
 173.001 497.999 171.001 494.999 168.001 491.999 c 0
 165.001 489.999 160.001 483.999 158.001 479.999 c 0
 155.001 474.999 152.001 471.999 152.001 471.999 c 1
 151.001 471.999 148.001 469.999 146.001 467.999 c 0
 143.001 465.999 140.001 462.999 138.001 461.999 c 2
 137.001 460.999 134.001 458.999 132.001 456.999 c 1
 130.001 455.999 127.001 453.999 126.001 453.999 c 0
 125.001 453.999 121.001 449.999 116.001 444.999 c 0
 111.001 439.999 107.001 435.999 107.001 434.999 c 0
 107.001 433.999 108.001 432.999 109.001 430.999 c 1
 111.001 429.999 116.001 428.999 136.001 428.999 c 0
 157.001 428.999 163.001 428.999 170.001 425.999 c 1
 178.001 423.999 181.001 422.999 195.001 423.999 c 0
 204.001 424.999 214.001 425.999 217.001 426.999 c 0
 219.001 427.999 225.001 428.999 230.001 428.999 c 0
 235.001 428.999 241.001 427.999 243.001 426.999 c 0
 245.001 425.999 249.001 422.999 250.001 420.999 c 0
 251.001 418.999 252.001 415.999 252.001 413.999 c 2
 252.501 412.999 252.751 410.499 252.751 407.249 c 0
 252.751 403.999 252.501 399.999 252.001 395.999 c 0
 252.001 381.999 252.001 381.999 248.001 376.999 c 1
 244.668 374.332 243.557 373.443 235.187 373.443 c 0
 231.001 373.443 225.001 373.666 216.001 373.999 c 0
 201.001 373.999 186.001 374.999 183.001 374.999 c 1
 180.001 375.999 176.001 375.999 175.001 374.999 c 1
 172.001 373.999 148.001 372.999 96.001 372.999 c 0
 39.001 372.999 20.001 372.999 17.001 374.999 c 1
 14.001 375.999 12.001 377.999 11.001 379.999 c 2
 9.00098 381.999 8.00098 386.999 7.00098 391.999 c 0
 5.8291 396.1 5.34375 399.171 5.34375 402.218 c 0
 5.34375 404.372 5.58594 406.515 6 409 c 0
 7 413 8 419 8 422 c 0
 8 426 10 430 12 433 c 0
 14 436 18 441 21 445 c 0
 24 448 30 454 35 458 c 0
 39 462 46 468 50 471 c 0
 54 474 59 478 61 480 c 0
 63 482 70 488 75 493 c 0
 81 498 88 506 91 511 c 0
 93 515 99 521 102 523 c 0
 106 526 112 532 115 536 c 0
 119 542 122 545 128 548 c 0
 133 550 139 554 141 557 c 0
 144 560 148 565 152 568 c 0
 155 571 161 579 166 585 c 1
 170 592 175 600 178 603 c 1
 180 607 182 612 183 615 c 0
 184 619 184 625 183 633 c 0
 182 640 181 647 179 650 c 0
 177 654 174 658 172 660 c 0
 169 663 163.989 665.965 154 669 c 0
 140.986 672.954 137 673 127 673 c 0
 116 672 114 672 107 667 c 0
 102 664 97 659 95 657 c 0
 93 654 90 650 90 648 c 1
 89 646 87 641 85 637 c 0
 83 633 79 627 76 625 c 0
 74 623 67 619 62 618 c 0
 57 617 48 615 42 615 c 0
 30 614 30 614 22 622 c 0
 14 630 14 630 14 639 c 0
 14 645 15 651 19 660 c 0
 22 667 24 673 24 674 c 0
 24 675 27 680 30 684 c 0
 33 688 36 693 36 693 c 1
 36 694 40 699 45 704 c 0
 52 711 58 715 70 721 c 0
 85 728 85 728 112 729 c 2
EndSplineSet
Validated: 33
EndChar
StartChar: uni00B6
Encoding: 182 182 114
Width: 685
GlyphClass: 2
Flags: MW
HStem: 718 81<301 306.001 301 339.001>
VStem: -23 281.001<516.5 520 592 603> 157 101.001<236 289> 158 101.376<30 32.5> 366.001 98<2 10.5 337 373.5> 366.001 101
LayerCount: 2
Fore
SplineSet
293 797 m 0xc0
 296 798 300 799 302 799 c 1
 304 798 308 797 310 796 c 0
 313 795 329 794 346 794 c 0
 363 793 380 792 383 791 c 1
 387 791 392 791 395 792 c 0
 398 793 418 794 449 794 c 0
 466.569 794.366 477.842 794.599 485.221 794.599 c 0
 498.001 794.599 499.099 793.902 501.001 792 c 0
 504.001 789 506.001 784 509.001 777 c 0
 512.001 768 512.001 762 513.001 749 c 0
 513.001 731 513.001 731 507.001 726 c 0
 503.001 723 497.001 719 492.001 717 c 1
 487.001 716 482.001 714 480.001 714 c 0
 479.001 714 476.001 714 473.001 713 c 0
 471.001 712 467.001 709 464.001 705 c 0xc8
 462.001 702 460.001 697 460.001 694 c 0
 460.001 692 461.001 688 463.001 687 c 1
 465.001 685 465.001 681 465.001 675 c 0
 465.001 670 466.001 665 468.001 662 c 0
 469.001 660 470.001 656 470.001 654 c 0
 470.001 652 469.001 647 467.001 643 c 0x84
 465.001 637 465.001 629 464.001 597 c 2
 464.001 507 l 2
 464.001 478 463.001 454 462.001 453 c 1
 462.001 451 461.001 448 460.001 446 c 1
 460.001 444 461.001 440 462.001 437 c 0
 463.001 432 464.001 410 464.001 337 c 0x88
 465.001 253 465.001 243 468.001 237 c 0
 470.001 232 470.001 231 467.001 222 c 0x84
 465.001 215 464.001 212 465.001 209 c 0
 466.001 207 467.001 199 466.001 189 c 0
 465.001 180 465.001 158 465.001 141 c 0
 465.001 113 464.001 109 462.001 104 c 1
 460.001 101 459.001 98 460.001 95 c 1
 460.001 92 462.001 88 463.001 84 c 0
 464.001 79 464.001 75 462.001 59 c 0
 459.001 40 459.001 39 462.001 32 c 1
 463.001 27 464.001 20 464.001 14 c 2
 464.001 -7 l 1
 463.001 -13 462.001 -19 460.001 -22 c 2
 459.001 -25 456.001 -28 455.001 -30 c 1
 453.001 -32 449.001 -35 446.001 -36 c 0
 442.001 -38 438.001 -38 431.001 -37 c 2
 426.001 -37 418.001 -36 414.001 -35 c 1
 410.001 -33 402.001 -32 397.001 -32 c 0
 392.001 -32 385.001 -31 380.001 -29 c 0
 376.001 -28 371.001 -25 369.001 -23 c 0
 365.001 -19 365.001 -18 366.001 2 c 0
 366.001 19 366.001 24 363.001 30 c 1
 361.001 37 361.001 37 366.001 52 c 0
 369.001 59 371.001 67 371.001 68 c 0
 371.001 69 370.001 73 369.001 76 c 0
 367.001 81 367.001 109 366.001 334 c 0x88
 366.001 473 365.001 588 365.001 589 c 0
 365.001 591 366.001 610 366.001 633 c 0
 367.001 665 368.001 677 369.001 681 c 0
 370.001 684 371.001 688 371.001 691 c 0
 371.001 694 369.001 697 365.001 702 c 0
 362.001 706 356.001 711 352.001 714 c 0
 346.001 718 344.001 719 339.001 718 c 0
 335.001 718 330.001 717 328.001 716 c 0
 324.001 714 322.001 714 317.001 716 c 0
 313.001 717 308.001 718 304.001 718 c 0
 301.001 718 293.001 717 287.001 716 c 0
 277.001 715 276.001 715 268.001 708 c 0
 262.001 703 260.001 700 259.001 696 c 0
 258.001 693 257.001 689 255.001 686 c 1
 254.001 683 253.001 678 253.001 675 c 0
 253.001 671 254.001 665 256.001 662 c 1
 258.001 657 258.001 652 258.001 635 c 2
 258.001 533 l 2xc4
 258.001 461 258.001 451 260.001 444 c 0
 262.001 439 263.001 433 263.001 429 c 0
 263.001 425 262.001 420 259.001 414 c 0
 255.001 406 255.001 405 256.001 399 c 0
 257.001 396 258.001 387 258.001 379 c 0
 258.501 375 258.751 360.75 258.751 341 c 0
 258.751 321.25 258.501 296 258.001 270 c 0xa0
 258.001 202 258.001 173 260.001 168 c 0
 261.001 165 262.001 161 263.001 161 c 1
 263.001 160 264.001 158 264.001 155 c 0
 264.001 153 263.001 147 261.001 143 c 0
 259.001 137 258.001 133 259.001 119 c 0
 260.001 105 259.001 100 257.001 94 c 0
 256.001 89 255.001 84 256.001 81 c 1
 256.001 78 256.001 72 255.001 69 c 0
 253.001 63 254.001 61 256.001 53 c 0
 258.251 46.25 259.376 42.875 259.376 28.9531 c 0
 259.376 24.3125 259.251 18.5 259.001 11 c 0
 259.001 -16 258.001 -21 256.001 -26 c 0
 254.001 -30 251.001 -34 249.001 -36 c 0
 246.465 -37.9023 245.135 -38.5986 239.404 -38.5986 c 0
 236.096 -38.5986 231.32 -38.3662 224 -38 c 0
 212 -37 200 -36 198 -35 c 0
 195 -34 188 -34 182 -34 c 0
 172 -34 172 -34 166 -28 c 1
 162 -22 161 -21 161 -13 c 0
 161 -7 160 3 159 12 c 0
 158 20 158 29 158 31 c 0x90
 158 34 159 45 159 57 c 0
 160 71 160 81 159 86 c 0
 158 90 158 96 157 99 c 1xa0
 157 102 158 108 159 112 c 0
 160 116 160 122 160 128 c 1
 159 133 159 140 160 144 c 1
 160 212 l 2
 160 254 159 273 158 277 c 0x90
 157 280 157 285 157 289 c 1xa0
 158 293 158 303 159 312 c 0
 159 321 160 329 161 330 c 1
 161 330 161 337 160 344 c 0
 159 351 157 358 156 360 c 0
 155 363 152 366 149 367 c 0
 145 369 138 371 127 372 c 0
 118 373 107 375 102 376 c 1
 98 378 91 380 87 381 c 0
 83 382 74 387 68 391 c 0
 62 395 53 400 48 403 c 1
 43 405 37 409 35 411 c 0
 32 413 30 417 28 419 c 1
 27 422 21 428 15 434 c 0
 10 440 5 445 5 446 c 1
 5 446 4 449 2 451 c 1
 1 453 -1 458 -1 462 c 1
 -2 466 -3 471 -4 473 c 0
 -5 475 -7 478 -8 480 c 2
 -9 481 -12 485 -13 487 c 0
 -14 490 -17 495 -19 500 c 0
 -21 506 -23 513 -23 520 c 1
 -24 526 -25 532 -26 534 c 1
 -26 535 -27 544 -27 553 c 0
 -27 564 -26 572 -25 576 c 0
 -24 579 -23 587 -23 597 c 0
 -23 609 -22 614 -20 622 c 0
 -18 627 -16 636 -16 641 c 1
 -15 646 -15 652 -14 653 c 1
 -13 655 -11 660 -9 664 c 0
 -7 669 -5 673 -5 674 c 1
 -5 674 -1 680 3 687 c 0
 8 694 16 704 21 709 c 2
 25 715 34 723 39 728 c 0
 44 733 48 738 48 739 c 1
 48 739 50 742 52 744 c 0
 54 746 58 749 62 751 c 0
 66 753 71 756 74 759 c 0
 77 762 83 765 87 767 c 0
 91 769 97 770 101 771 c 1
 104 771 112 774 118 777 c 0
 123 779 132 782 136 783 c 1
 140 783 147 785 152 787 c 1
 157 790 162 791 167 791 c 0
 172 791 182 791 190 792 c 0
 199 792 224 793 246 793 c 0
 278 794 288 795 293 797 c 0xc0
EndSplineSet
Validated: 33
EndChar
StartChar: uni00B9
Encoding: 185 185 117
Width: 254
GlyphClass: 2
Flags: MW
HStem: 603 74<58.5 59 56.5 61.5> 636 82<120 141>
VStem: 124 63<450 584.999 475.499 632 475.499 633>
LayerCount: 2
Fore
SplineSet
160 721 m 1x60
 162 723 167 723.999 170 723.999 c 0
 174 723.999 179 722.999 181 721.999 c 0
 184 720.999 188 717.999 189 715.999 c 0
 191 712.999 193 708.999 193 705.999 c 0
 193 702.999 191 695.999 189 690.999 c 0
 186 681.999 186 680.999 189 673.999 c 0
 190 669.999 192 664.999 192 662.999 c 2
 193 660.999 191 654.999 190 650.999 c 0
 187 641.999 187 640.999 187 528.999 c 0
 187 421.999 188 414.999 190 409.999 c 1
 192 406.999 193 402.999 192 398.999 c 2
 192 394.999 190 387.999 189 381.999 c 1
 187 376.999 185 370.999 183 369.999 c 2
 182 367.999 179 365.999 176 364.999 c 0
 174.854 364.235 173.709 363.909 172.229 363.909 c 0
 169.833 363.909 166.562 364.764 161 366 c 0
 154 367 146 369 141 371 c 0
 137 372 131 375 128 376 c 0
 126 377 123 380 122 382 c 1
 120 384 119 390 119 407 c 0
 119 426 119 430 121 434 c 0
 124 438 124 442 124 458 c 0
 124 473 124 477 122 481 c 0
 119 486 119 491 119 550 c 0
 119 593 120 615 121 617 c 1
 122 618 123 622 124 624 c 1
 124 627 125 630 124 632 c 1
 124 634 122 636 120 636 c 1x60
 118 637 112 635 103 630 c 0
 96 626 88 622 85 620 c 0
 81 618 75 613 72 610 c 0
 66 605 63 603 60 603 c 0
 57 603 52 604 49 606 c 2
 45 607 41 610 40 612 c 0
 37 616 37 618 37 641 c 0
 37 658 37 668 39 669 c 1
 40 671 43 673 46 674 c 0
 48 675 54 677 59 677 c 1xa0
 65 678 69 680 75 684 c 0
 79 687 84 690 85 691 c 0
 86 692 90 694 92 695 c 0
 95 697 99 701 101 704 c 0
 104 708 108 711 116 714 c 0
 123 717 130 718 141 718 c 0
 150 719 158 720 160 721 c 1x60
EndSplineSet
Validated: 33
EndChar
StartChar: uni00BF
Encoding: 191 191 123
Width: 450
GlyphClass: 2
Flags: W
LayerCount: 2
Fore
SplineSet
270 544 m 1
 270 545 271.001 545.001 272.001 545.001 c 0
 273.001 545.001 278.001 544.001 283.001 543.001 c 0
 287.001 542.001 294.001 541.001 296.001 541.001 c 0
 299.001 541.001 303.001 540.001 305.001 539.001 c 1
 306.903 537.099 307.6 536.402 307.6 523.152 c 0
 307.6 515.502 307.367 503.667 307.001 485 c 0
 307.001 437 306.001 432 304.001 426 c 1
 302.001 423 298.001 416 295.001 412 c 2
 284.001 397 l 1
 282.001 392 278.001 386 276.001 383 c 0
 274.001 380 271.001 376 268.001 375 c 1
 265.001 373 260.001 368 257.001 363 c 0
 255.001 359 250.001 354 246.001 352 c 0
 243.001 350 240.001 348 239.001 348 c 1
 239.001 348 237.001 347 236.001 345 c 1
 234.001 344 232.001 341 231.001 339 c 0
 230.001 337 228.001 334 228.001 333 c 1
 227.001 331 225.001 327 223.001 324 c 0
 221.001 321 218.001 318 216.001 316 c 0
 215.001 315 211.001 309 207.001 304 c 0
 204.001 299 199.001 292 196.001 289 c 0
 193.001 286 191.001 282 191.001 282 c 1
 191.001 281 189.001 277 187.001 274 c 1
 186.001 270 183.001 266 183.001 265 c 1
 182.001 264 178.001 260 175.001 256 c 0
 169.001 249 168.001 248 167.001 235 c 0
 166.001 227 166.001 216 166.001 209 c 0
 166.001 203 165.001 195 163.001 190 c 0
 161.001 184 161.001 181 163.001 176 c 0
 164.001 173 165.001 166 166.001 162 c 0
 167.001 157 170.001 151 176.001 143 c 0
 180.001 136 187.001 128 190.001 126 c 0
 193.001 124 197.001 121 199.001 120 c 1
 200.001 120 207.001 115 213.001 111 c 0
 220.001 106 229.001 101 235.001 99 c 0
 241.001 97 251.001 95 258.001 94 c 0
 262.001 93.5 267.501 93.25 273.751 93.25 c 0
 280.001 93.25 287.001 93.5 294.001 94 c 0
 307.001 95 321.001 96 325.001 98 c 1
 329.001 99 335.001 100 339.001 100 c 0
 343.001 100 350.001 101 355.001 103 c 0
 360.001 105 367.001 106 374.001 106 c 0
 384.001 106 386.001 105 391.001 102 c 0
 394.001 100 397.001 96 398.001 92 c 2
 400.001 89 401.001 79 402.001 71 c 0
 402.578 64.6494 403.155 59.9658 403.155 56.3711 c 0
 403.155 53.7393 402.846 51.6914 402 50.001 c 2
 402 47.001 399 43.001 398 41.001 c 1
 396 39.001 392 36.001 389 35.001 c 0
 386 34.001 379 32.001 372 31.001 c 0
 365 30.001 358 28.001 355 27.001 c 0
 353 26.001 347 25.001 342 25.001 c 0
 337 25.001 331 24.001 328 23.001 c 0
 326 22.001 318 20.001 311 19.001 c 0
 304 18.001 296 17.001 293 16.001 c 0
 290.303 15.1016 288.414 14.6064 286.335 14.6064 c 0
 283.788 14.6064 280.955 15.3486 276 17 c 0
 268 19 257 19 235 20 c 0
 213 20 203 21 200 23 c 1
 197 24 192 25 188 26 c 1
 184 26 177 28 172 30 c 0
 167 32 158 36 151 39 c 0
 144 42 137 44 134 44 c 0
 132 44 128 45 126 46 c 0
 123 48 120 50 119 51 c 2
 117 52 113 54 110 56 c 0
 106 58 100 61 95 64 c 0
 91 67 83 74 77 80 c 0
 72 85 67 91 67 92 c 1
 67 92 64 100 59 109 c 0
 55 118 50 129 48 134 c 2
 45 139 44 145 44 148 c 0
 44 151 42 157 41 162 c 1
 38 168 38 174 38 186 c 0
 38 199 38 204 41 209 c 1
 42 212 45 221 47 228 c 0
 48 235 52 246 56 253 c 0
 59 260 64 268 67 270 c 1
 69 273 73 280 75 285 c 0
 78 293 82 298 89 306 c 0
 94 311 103 319 108 323 c 1
 114 326 120 331 123 334 c 0
 125 336 132 344 137 351 c 0
 143 358 150 365 154 368 c 0
 159 371 166 377 171 382 c 0
 176 387 182 393 185 394 c 1
 188 396 192 399 195 402 c 0
 198 404 201 410 202 414 c 1
 204 418 208 425 212 429 c 1
 215 433 219 439 220 442 c 0
 221 446 221 454 221 474 c 0
 220.5 481.5 220.25 488.75 220.25 494.625 c 0
 220.25 500.5 220.5 505 221 507 c 2
 221 511 223 518 225 524 c 0
 226 529 229 535 231 537 c 0
 234 541 235 541 252 542 c 0
 261 543 269 544 270 544 c 1
289.001 695.001 m 0
 293.102 696.173 295.486 696.657 297.562 696.657 c 0
 299.03 696.657 300.344 696.415 302.001 696.001 c 0
 307.001 694.001 308.001 693.001 311.001 685.001 c 0
 313.001 677.001 314.001 673.001 314.001 643.001 c 0
 313.001 612.001 313.001 610.001 310.001 606.001 c 0
 309.001 604.001 305.001 601.001 302.001 599.001 c 0
 298.001 597.001 294.001 597.001 264.001 597.001 c 0
 231.001 597.001 231.001 597.001 227.001 602.001 c 0
 223.001 606.001 221.001 609.001 221.001 614.001 c 1
 220.501 616.001 220.251 620.751 220.251 626.876 c 0
 220.251 633.001 220.501 640.501 221.001 648.001 c 0
 221.001 667.001 222.001 676.001 224.001 679.001 c 0
 225.001 681.001 229.001 686.001 232.001 689.001 c 0
 238.001 694.001 238.001 694.001 260.001 693.001 c 0
 277.001 693.001 283.001 693.001 289.001 695.001 c 0
EndSplineSet
Validated: 33
EndChar
StartChar: uni00CC
Encoding: 204 204 136
Width: 213
GlyphClass: 2
Flags: W
LayerCount: 2
Fore
SplineSet
41 668 m 0
 44 670 49.999 670.002 66.999 669.002 c 0
 78.999 669.002 89.999 668.002 90.999 667.002 c 0
 91.999 666.002 96.999 666.002 100.999 666.002 c 0
 104.999 666.002 109.999 667.002 112.999 668.002 c 0
 115.999 669.002 121.999 670.002 125.999 670.002 c 0
 128.999 670.002 137.999 668.002 143.999 666.002 c 0
 150.999 664.002 154.999 661.002 156.999 658.002 c 0
 158.999 655.002 159.999 651.002 159.999 633.002 c 0
 160.999 618.002 161.999 609.002 162.999 605.002 c 0
 163.999 602.502 164.499 601.002 164.499 599.127 c 0
 164.499 597.252 163.999 595.002 162.999 591.002 c 1
 160.999 587.002 159.999 579.002 159.999 575.002 c 0
 159.999 570.002 160.999 562.002 160.999 556.002 c 0
 161.499 553.002 161.749 548.252 161.749 542.252 c 0
 161.749 536.252 161.499 529.002 160.999 521.002 c 0
 159.999 507.002 158.999 492.002 157.999 487.002 c 0
 155.999 480.002 155.999 477.002 157.999 470.002 c 0
 158.999 463.002 159.999 455.002 159.999 434.002 c 0
 159.666 429.002 159.555 422.002 159.555 413.965 c 0
 159.555 397.891 159.999 377.668 159.999 361.001 c 0
 160.365 345.262 160.598 335.016 160.598 327.908 c 0
 160.598 315.599 159.901 312.706 157.999 307 c 0
 154.999 299 154.999 298 156.999 292 c 0
 158.999 287 159.999 280 159.999 256 c 0
 159.999 237 158.999 224 157.999 220 c 0
 156.999 216 156.999 213 157.999 207 c 1
 159.999 202 159.999 187 159.999 155 c 0
 159.999 138.333 159.555 120.777 159.555 108.852 c 0
 159.555 102.889 159.666 98.333 159.999 96 c 0
 159.999 89 160.999 78 161.999 73 c 0
 163.171 68.8994 163.656 65.4854 163.656 62.5566 c 0
 163.656 60.4854 163.414 58.6572 163 57 c 0
 162 53 161 44 161 36 c 0
 160 25 159 20 157 16 c 0
 155 12 151 8 148 6 c 0
 144 3 142 3 112 3 c 0
 94 2 72 2 63 2 c 0
 48 2 45 3 41 6 c 0
 39 7 35 12 34 15 c 1
 31 20 31 23 32 41 c 0
 32 52 32 104 33 156 c 0
 33 236 33 252 31 260 c 0
 29 268 29 271 31 275 c 1
 32 279 32 302 33 364 c 0
 33 443 33 449 30 457 c 0
 28 465 28 466 30 472 c 0
 32 477 32 485 33 504 c 0
 33 523 34 530 36 533 c 1
 37 536 38 540 38 542 c 0
 38 544 36 548 33 551 c 0
 28 556 28 558 28 564 c 0
 28 568 29 574 30 577 c 0
 31 581 33 590 33 602 c 0
 34 612 34 625 33 630 c 2
 33 635 32 643 31 647 c 0
 30 655 31 657 34 661 c 0
 36 664 39 667 41 668 c 0
38.999 850.002 m 0
 41.999 851.002 44.999 852.002 45.999 852.002 c 0
 46.999 852.002 52.999 850.002 58.999 848.002 c 0
 65.999 845.002 72.999 842.002 74.999 842.002 c 1
 76.999 841.002 81.999 838.002 84.999 835.002 c 0
 88.999 832.002 92.999 826.002 94.999 822.002 c 0
 96.999 819.002 99.999 813.002 100.999 809.002 c 1
 102.999 805.002 104.999 801.002 105.999 800.002 c 1
 105.999 799.002 108.999 796.002 110.999 793.002 c 1
 113.999 791.002 115.999 787.002 115.999 787.002 c 1
 115.999 786.002 116.999 784.002 117.999 783.002 c 1
 118.999 783.002 119.999 780.002 120.999 778.002 c 1
 120.999 776.002 123.999 771.002 126.999 768.002 c 0
 128.999 765.002 132.999 760.002 134.999 757.002 c 0
 136.999 753.002 137.999 749.002 137.999 744.002 c 0
 137.999 736.002 137.999 736.002 129.999 732.002 c 0
 123.999 728.002 120.999 728.002 115.999 728.002 c 1
 112.999 729.002 106.999 729.002 101.999 730.002 c 0
 96.999 731.002 89.999 733.002 86.999 735.002 c 0
 83.999 737.002 79.999 739.002 77.999 740.002 c 0
 75.999 741.002 70.999 745.002 65.999 750.002 c 0
 61.999 754.002 53.999 764.002 47.999 771.002 c 0
 40.999 781.002 34.999 786.002 30.999 789.002 c 0
 26.999 791.002 15.999 800.002 6.99902 809.002 c 0
 -7.00098 823.002 -9.00098 826.002 -9.00098 830.002 c 0
 -9.00098 833.002 -8.00098 837.002 -6.00098 839.002 c 0
 -4.00098 842.002 -1.00098 845.002 0.999023 846.002 c 0
 3.99902 847.002 9.99902 848.002 18.999 848.002 c 0
 25.999 848.002 34.999 849.002 38.999 850.002 c 0
EndSplineSet
Validated: 33
EndChar
StartChar: uni00D0
Encoding: 208 208 140
Width: 662
GlyphClass: 2
Flags: W
LayerCount: 2
Fore
SplineSet
292 576 m 1
 287 576 282 577 280 578 c 1
 279 578 274 578 269 576 c 0
 265 574 255 572 249 572 c 2
 242 571 229 570 221 570 c 0
 209 569 204 569 199 566 c 2
 196 565 191 561 189 558 c 0
 184 552 184 552 184 539 c 0
 184 529 185 524 187 521 c 0
 189 517 189 510 189 468 c 0
 189 437 189 418 190 414 c 0
 191 411 194 407 196 405 c 0
 198 403 202 401 205 400 c 0
 208 399 215 397 222 397 c 1
 228 396 236 395 240 394 c 1
 245 394 249 394 256 397 c 0
 263 399 269 400 288 400 c 0
 310 400 312 400 318 397 c 0
 321 395 325 392 327 389 c 0
 329 386 329 383 329 381 c 1
 328 380 328 373 327 367 c 1
 327 358 326 354 323 348 c 0
 321 344 317 339 314 337 c 0
 310 333 309 333 288 332 c 0
 276 331 262 331 257 332 c 1
 226 332 l 2
 203 331 203 331 196 324 c 0
 189 317 189 317 189 280 c 0
 190 260 190 237 190 229 c 0
 190 222 189.959 206.004 189 195 c 0
 187.955 183.004 187 171 186 168 c 1
 186 163 186 160 190 151 c 0
 192 145 194 138 194 135 c 0
 194 132 193 127 191 123 c 0
 189 120 187 115 186 114 c 1
 185 112 185 109 185 107 c 1
 186 106 189 102 193 100 c 0
 200 95 200 95 226 95 c 0
 249 94 253 94 257 92 c 1
 259 90 262 90 266 90 c 1
 269 91 271 92 272 93 c 1
 272 93 281 94 291 94 c 0
 304 94 310 95 317 97 c 0
 322 99 329 100 337 100 c 0
 347 100 351 100 357 103 c 2
 369 109 l 2
 372 110 378 112 383 114 c 1
 388 115 394 118 398 122 c 0
 401 125 405 128 406 128 c 0
 407 128 410 130 413 133 c 0
 416 136 418 139 418 140 c 0
 418 141 422 146 427 150 c 0
 432 154 438 160 441 162 c 1
 443 165 447 169 448 173 c 2
 450 176 452 182 453 187 c 1
 453 194 455 197 459 202 c 0
 462 206 466 214 468 220 c 2
 471 226 474 234 476 238 c 0
 478 243 479 248 479 260 c 0
 480 271 480 277 482 281 c 0
 485 285 485 291 485 340 c 0
 485 393 485 394 481 399 c 1
 479 403 478 407 477 418 c 0
 477 426 476 434 475 436 c 2
 475 438 472 446 470 453 c 0
 468 461 463 473 459 480 c 2
 456 488 450 497 447 500 c 0
 443 504 440 507 438 508 c 1
 437 509 434 512 431 516 c 0
 429 519 423 523 419 525 c 0
 414 528 408 532 405 535 c 0
 402 539 395 542 390 545 c 1
 385 547 377 551 373 554 c 0
 369 557 364 560 361 561 c 1
 358 561 353 563 351 564 c 0
 348 565 341 566 335 566 c 0
 328 566 322 567 319 568 c 0
 317 569 312 571 308 573 c 1
 304 574 297 575 292 576 c 1
174 662 m 0
 178 664 184 663.999 201 663.999 c 0
 217 663.999 225 663.999 230 661.999 c 0
 233 660.999 242 659.999 249 658.999 c 1
 257 658.999 270 657.999 278 657.999 c 0
 287 656.999 296 656.999 300 656.999 c 2
 331 656.999 l 2
 347 656.999 361 656.999 367 655.999 c 0
 372 654.999 379 652.999 383 650.999 c 0
 386 649.999 397 646.999 406 644.999 c 0
 416 642.999 425 639.999 428 638.999 c 0
 430 637.999 437 634.999 443 632.999 c 1
 449 631.999 455 628.999 456 627.999 c 0
 457 626.999 461 624.999 464 622.999 c 1
 468 621.999 474 618.999 480 616.999 c 1
 486 613.999 491 610.999 496 605.999 c 1
 499 601.999 505 597.999 508 595.999 c 0
 511 593.999 515 591.999 517 590.999 c 2
 518 589.999 523 586.999 526 583.999 c 0
 529 579.999 534 573.999 536 570.999 c 1
 537 566.999 544 559.999 549 553.999 c 1
 555 548.999 561 540.999 563 537.999 c 0
 565 533.999 568 527.999 571 525.999 c 1
 573 522.999 577 517.999 579 513.999 c 0
 582 509.999 585 502.999 586 498.999 c 0
 588 493.999 590 485.999 592 480.999 c 1
 593 475.999 594 469.999 594 467.999 c 0
 594 465.999 596 461.999 598 457.999 c 0
 600 453.999 603 447.999 604 444.999 c 0
 605 440.999 607 432.999 607 424.999 c 1
 608 417.999 609 409.999 610 405.999 c 0
 611 402.999 613 394.999 613 386.999 c 0
 613 379.999 615 370.999 616 367.999 c 0
 617 364.999 618 358.999 619 355.999 c 1
 619 351.999 620 345.999 620 340.999 c 0
 620 335.999 619 332.999 617 330.999 c 0
 615 328.999 614 323.999 613 315.999 c 0
 613 308.999 612 295.999 612 286.999 c 0
 612 277.999 611 266.999 610 262.999 c 2
 610 257.999 609 252.999 608 250.999 c 1
 608 248.999 606 241.999 604 235.999 c 0
 602 229.999 600 223.999 600 222.999 c 0
 600 220.999 598 212.999 595 204.999 c 0
 593 196.999 590 187.999 589 184.999 c 1
 589 181.999 587 175.999 585 172.999 c 2
 584 169.999 581 164.999 580 161.999 c 0
 579 159.999 575 154.999 572 150.999 c 0
 569 147.999 566 142.999 566 140.999 c 1
 565 138.999 562 133.999 560 130.999 c 0
 557 126.999 555 122.999 555 122.999 c 1
 555 121.999 552 118.999 550 114.999 c 1
 547 111.999 543 106.999 541 104.999 c 0
 539 102.999 537 99.999 537 98.999 c 0
 537 97.999 534 94.999 531 90.999 c 0
 528 87.999 523 83.999 521 82.999 c 0
 519 81.999 514 76.999 512 72.999 c 0
 507 65.999 505 63.999 495 58.999 c 0
 488 55.999 481 50.999 477 46.999 c 0
 473 41.999 468 38.999 464 36.999 c 1
 460 35.999 455 32.999 453 31.999 c 0
 450 30.999 445 28.999 442 27.999 c 0
 439 26.999 432 23.999 427 21.999 c 1
 422 18.999 413 15.999 408 14.999 c 0
 402 13.999 395 11.999 392 10.999 c 0
 390 9.99902 383 7.99902 378 7.99902 c 2
 372 6.99902 365 6.99902 363 6.99902 c 2
 348 6.99902 l 1
 341 7.99902 336 6.99902 331 4.99902 c 0
 325 2.99902 322 2.99902 310 2.99902 c 0
 307.071 3.29199 304.057 3.41309 300.956 3.41309 c 0
 293.471 3.41309 285.485 2.70605 277 1.99902 c 0
 267 0.999023 258 -1.00098 256 -2.00098 c 2
 255 -2.00098 252 -3.00098 250 -3.00098 c 0
 248 -3.00098 243 -2.00098 239 -0.000976562 c 0
 232 1.99902 228 2.99902 203 2.99902 c 0
 186 2.99902 171 1.99902 166 0.999023 c 0
 162 -0.000976562 153 -1.00098 146 -0.000976562 c 1
 138 -0.000976562 133 -1.00098 132 -2.00098 c 1
 132 -2.00098 129 -3.00098 126 -3.00098 c 0
 124 -3.00098 119 -2.00098 117 -1.00098 c 0
 114 -0.000976562 109 1.99902 105 2.99902 c 1
 100 2.99902 95 4.99902 93 5.99902 c 0
 90 6.99902 85 6.99902 80 6.99902 c 0
 76 6.99902 71 7.99902 70 8.99902 c 2
 68 9.99902 66 11.999 65 13.999 c 0
 64 15.999 63 22.999 62 42.999 c 0
 61 57.999 61 72.999 61 77.999 c 1
 60 81.999 61 88.999 61 91.999 c 2
 61 118.999 l 1
 61 150.999 l 1
 61 180.999 l 1
 61 262.999 l 2
 61 313.999 61 327.999 60 328.999 c 0
 58 330.999 52 330.999 37 330.999 c 0
 19 330.999 15 331.999 10 333.999 c 1
 6 336.999 4 338.999 2 342.999 c 0
 1 345.999 0 353.999 0 359.999 c 0
 0 369.999 0 371.999 4 379.999 c 1
 7 383.999 10 388.999 12 390.999 c 0
 14 392.999 18 393.999 21 393.999 c 0
 23 393.999 31 395.999 37 397.999 c 0
 49 401.999 49 401.999 52 409.999 c 0
 54 413.999 56 419.999 57 421.999 c 0
 59 425.999 60 432.999 61 448.999 c 0
 62 460.999 63 477.999 63 485.999 c 0
 63 493.999 62 532.999 62 571.999 c 0
 61.6338 597.255 61.4014 613.803 61.4014 624.829 c 0
 61.4014 643.928 62.0977 646.464 64 649 c 0
 66 652 69 654 74 656 c 0
 79 658 90 658 125 659 c 0
 161 659 170 660 174 662 c 0
EndSplineSet
Validated: 33
EndChar
StartChar: uni00D3
Encoding: 211 211 143
Width: 709
GlyphClass: 2
Flags: W
LayerCount: 2
Fore
SplineSet
344 600 m 1
 339 601 331.999 602 324.999 602 c 0
 322.847 602.215 321.064 602.338 319.474 602.338 c 0
 313.675 602.338 310.416 600.709 300.999 596 c 0
 292.999 593 283.999 588 279.999 586 c 0
 274.999 584 270.999 582 268.999 580 c 1
 266.999 579 262.999 576 257.999 573 c 0
 253.999 571 248.999 568 245.999 567 c 1
 243.999 565 238.999 561 234.999 559 c 1
 224.999 549 l 2
 221.999 547 218.999 541 217.999 537 c 0
 216.999 531 212.999 526 205.999 518 c 0
 200.999 513 195.999 505 194.999 503 c 1
 194.999 500 192.999 495 190.999 492 c 1
 189.999 489 188.999 483 187.999 478 c 1
 187.999 472 185.999 465 183.999 460 c 1
 180.999 456 178.999 450 177.999 447 c 0
 176.999 444 175.999 440 175.999 437 c 0
 175.999 435 174.999 429 173.999 425 c 0
 171.999 419 171.999 416 172.999 409 c 1
 174.999 403 174.999 399 172.999 389 c 0
 170.999 380 169.999 369 169.999 349 c 0
 169.999 327 170.999 319 172.999 313 c 0
 174.999 306 174.999 304 172.999 298 c 0
 171.999 295 170.999 289 170.999 286 c 0
 170.999 282 170.999 277 172.999 273 c 0
 173.999 270 175.999 263 176.999 258 c 0
 177.999 253 179.999 247 180.999 245 c 1
 180.999 242 183.999 235 185.999 229 c 0
 187.999 222 189.999 215 189.999 209 c 0
 189.999 201 189.999 198 192.999 195 c 1
 193.999 192 196.999 188 197.999 186 c 0
 198.999 183 199.999 179 200.999 175 c 0
 201.999 172 203.999 168 204.999 167 c 0
 205.999 166 206.999 165 206.999 164 c 0
 206.999 163 210.999 157 215.999 151 c 0
 220.999 144 231.999 132 239.999 124 c 0
 247.999 116 258.999 107 263.999 103 c 0
 271.999 97 275.999 96 286.999 94 c 0
 294.999 92 308.999 91 317.999 89 c 0
 327.999 88 336.999 87 336.999 87 c 1
 337.999 86 340.999 85 343.999 84 c 0
 345.656 83.5859 347.142 83.3438 348.882 83.3438 c 0
 351.343 83.3438 354.313 83.8291 359 85.001 c 0
 365 86.001 376 87.001 385 88.001 c 0
 393 89.001 402 90.001 404 92.001 c 1
 407 93.001 411 94.001 414 94.001 c 0
 416 94.001 421 95.001 424 96.001 c 1
 427 98.001 433 99.001 436 100.001 c 0
 441 102.001 447 106.001 465 123.001 c 0
 477 135.001 488 147.001 490 150.001 c 0
 492 154.001 495 161.001 497 166.001 c 0
 499 172.001 503 179.001 505 183.001 c 0
 507 187.001 511 193.001 514 197.001 c 0
 518 202.001 519 204.001 520 212.001 c 0
 520 217.001 522 223.001 523 225.001 c 0
 524 227.001 525 234.001 525 240.001 c 0
 525 246.001 525 251.001 526 252.001 c 1
 527 252.001 529 256.001 530 260.001 c 0
 532 265.001 532 274.001 533 295.001 c 0
 533 312.001 534 324.001 535 327.001 c 0
 536 329.001 537 338.001 538 346.001 c 0
 538.414 350.558 538.657 354.256 538.657 357.736 c 0
 538.657 362.658 538.172 367.144 537 373.001 c 0
 536 381.001 535 388.001 534 389.001 c 0
 533 390.001 531 394.001 529 398.001 c 1
 527 406.001 527 407.001 530 417.001 c 0
 532 425.001 532 431.001 531 436.001 c 2
 531 441.001 528 451.001 525 460.001 c 0
 522 468.001 519 476.001 519 477.001 c 0
 519 478.001 517 483.001 515 488.001 c 0
 513 493.001 510 500.001 509 502.001 c 0
 508 505.001 507 508.001 507 510.001 c 0
 507 511.001 505 516.001 501 520.001 c 1
 498 525.001 495 529.001 495 531.001 c 1
 494 532.001 492 537.001 489 540.001 c 2
 487 544.001 483 549.001 481 551.001 c 0
 478 554.001 472 558.001 468 561.001 c 0
 463 564.001 457 569.001 454 571.001 c 0
 451 574.001 445 578.001 441 580.001 c 0
 437 582.001 430 585.001 426 587.001 c 0
 423 589.001 419 590.001 419 591.001 c 1
 409 597.001 l 2
 402 600.001 397 602.001 390 602.001 c 0
 388.393 602.269 386.785 602.393 385.158 602.393 c 0
 380.713 602.393 376.124 601.464 371 600 c 0
 365 598 359 597 356 597 c 0
 354 597 348 598 344 600 c 1
320.999 686 m 0
 325.392 687.464 329.784 688.392 340.453 688.392 c 0
 344.358 688.392 349.104 688.268 354.999 688 c 0
 377.999 688 382.999 688 389.999 685 c 0
 393.999 683 400.999 682 406.999 682 c 0
 411.999 682 419.999 681 424.999 680 c 0
 429.999 679 439.999 677 445.999 677 c 1
 452.999 676 458.999 675 458.999 675 c 1
 459.999 674 466.999 671 474.999 668 c 0
 482.999 664 493.999 660 500.999 658 c 0
 506.999 656 512.999 653 514.999 652 c 1
 515.999 651 521.999 648 527.999 645 c 1
 533.999 643 541.999 639 545.999 636 c 0
 548.999 633 554.999 630 557.999 628 c 0
 560.999 626 568.999 618 575.999 610 c 0
 581.999 602 587.999 595 588.999 593 c 2
 590.999 591 594.999 584 599.999 577 c 2
 615.999 553 l 2
 619.999 546 624.999 539 625.999 538 c 1
 625.999 536 628.999 533 630.999 530 c 0
 632.999 526 634.999 520 635.999 516 c 1
 635.999 512 637.999 506 639.999 503 c 1
 640.999 499 641.999 495 641.999 493 c 0
 641.999 491 644.999 485 646.999 480 c 0
 650.999 473 652.999 468 652.999 461 c 0
 652.999 456 655.999 448 657.999 442 c 0
 660.999 434 661.999 431 660.999 422 c 0
 660.999 415 660.999 411 662.999 407 c 0
 663.999 404 664.999 395 664.999 386 c 0
 665.999 377 666.999 365 667.999 359 c 0
 669.499 354 670.249 351.25 670.249 348.625 c 0
 670.249 346 669.499 343.5 667.999 339 c 0
 664.999 331 663.999 326 663.999 308 c 0
 663.999 293 663.999 285 661.999 282 c 1
 660.999 279 659.999 270 658.999 262 c 0
 658.999 254 656.999 245 654.999 241 c 1
 653.999 236 652.999 230 652.999 221 c 0
 652.999 210 651.999 209 647.999 201 c 1
 644.999 197 641.999 192 641.999 191 c 0
 641.999 190 640.999 186 638.999 183 c 1
 637.999 179 635.999 173 634.999 168 c 0
 634.999 164 632.999 158 631.999 155 c 1
 629.999 152 622.999 143 615.999 134 c 0
 608.999 126 601.999 115 599.999 110 c 1
 595.999 104 589.999 96 574.999 81 c 0
 558.999 65 552.999 60 545.999 57 c 0
 540.999 54 533.999 50 529.999 47 c 0
 525.999 45 522.999 43 521.999 43 c 0
 520.999 43 519.999 42 518.999 40 c 1
 517.999 39 513.999 37 509.999 35 c 0
 504.999 33 499.999 30 496.999 29 c 0
 493.999 28 490.999 27 489.999 26 c 1
 488.999 26 486.999 25 484.999 24 c 1
 481.999 24 477.999 21 474.999 19 c 0
 470.999 17 466.999 14 464.999 13 c 0
 461.999 11 457.999 10 452.999 10 c 0
 447.999 10 439.999 9 434.999 7 c 2
 429.999 6 420.999 3 414.999 1 c 0
 405.999 -1 400.999 -2 392.999 -1 c 0
 385.999 -1 378.999 0 375.999 1 c 1
 371.999 1 367.999 1 363.999 -1 c 1
 358.999 -2 351.999 -4 344.999 -4 c 0
 335.999 -4 330.999 -3 324.999 -1 c 0
 318.999 1 316.999 2 310.999 0 c 0
 307.999 -1 302.999 -2 300.999 -3 c 1
 298.999 -3 292.999 -2 287.999 0 c 1
 282.999 1 274.999 3 270.999 3 c 0
 264.999 4 261.999 5 258.999 8 c 0
 256.999 10 252.999 12 250.999 13 c 0
 248.999 14 243.999 15 240.999 15 c 0
 237.999 15 228.999 17 220.999 20 c 0
 213.999 22 203.999 27 199.999 29 c 0
 194.999 31 186.999 36 181.999 40 c 0
 175.999 45 167.999 49 163.999 51 c 0
 157.999 53 150.999 58 130.999 77 c 0
 116.999 91 105.999 101 104.999 101 c 0
 103.999 101 101.999 103 99.999 105 c 0
 97.999 108 94.999 112 93.999 115 c 2
 91.999 118 90.999 124 89.999 127 c 1
 89.999 131 87.999 134 83.999 138 c 0
 80.999 141 77.999 144 77.999 145 c 1
 77.999 145 74.999 149 71.999 154 c 0
 67.999 159 63.999 164 63.999 165 c 2
 62.999 167 59.999 176 57.999 186 c 0
 55.999 196 54.999 207 54.999 212 c 0
 54.999 219 53.999 223 51.999 227 c 0
 49.999 231 48.999 236 47.999 238 c 1
 47.999 241 46.999 246 45.999 249 c 0
 44.999 252 43.999 259 43.999 264 c 0
 43.999 269 42.999 276 40.999 281 c 0
 38.999 288 37.999 293 37.999 336 c 0
 37.999 375 38.999 385 39.999 389 c 1
 41.999 392 42.999 398 43.999 404 c 1
 43.999 409 45.999 417 46.999 422 c 1
 48.999 427 49.999 433 49.999 436 c 0
 49.999 440 50.999 443 50.999 443 c 1
 51.999 443 53.999 450 56.999 458 c 0
 58.999 466 61.999 476 62.999 481 c 2
 64.999 486 65.999 494 65.999 499 c 0
 65.999 506 66.999 510 68.999 515 c 1
 75.999 526 l 2
 77.999 529 79.999 532 80.999 532 c 1
 86.999 542 l 1
 88.999 548 93.999 556 95.999 561 c 0
 98.999 567 103.999 573 105.999 576 c 0
 108.999 579 112.999 585 115.999 589 c 0
 118.999 593 125.999 601 132.999 608 c 0
 138.999 615 147.999 622 151.999 624 c 0
 155.999 626 161.999 629 164.999 631 c 0
 166.999 632 173.999 638 178.999 643 c 0
 183.999 648 189.999 653 192.999 654 c 2
 194.999 656 199.999 657 202.999 657 c 1
 204.999 658 213.999 661 220.999 663 c 2
 242.999 672 l 2
 246.999 674 254.999 676 259.999 676 c 1
 264.999 677 270.999 678 273.999 680 c 0
 275.999 682 280.999 684 283.999 686 c 0
 287.999 688 288.999 688 294.999 686 c 1
 297.999 684 303.999 683 306.999 684 c 2
 310.999 684 316.999 685 320.999 686 c 0
410.999 862.999 m 1
 423.999 862.999 l 2
 427.999 862.999 434.999 861.999 438.999 860.999 c 0
 444.999 859.999 447.999 857.999 451.999 854.999 c 0
 454.999 851.999 456.999 848.999 456.999 845.999 c 0
 456.999 843.999 454.999 839.999 451.999 836.999 c 0
 448.999 832.999 442.999 826.999 439.999 822.999 c 2
 435.999 818.999 430.999 812.999 428.999 809.999 c 0
 426.999 806.999 424.999 802.999 424.999 802.999 c 1
 424.999 801.999 420.999 797.999 415.999 792.999 c 0
 410.999 787.999 402.999 781.999 397.999 778.999 c 0
 393.999 775.999 385.999 768.999 380.999 763.999 c 0
 376.999 758.999 370.999 751.999 368.999 749.999 c 0
 366.999 746.999 362.999 743.999 360.999 742.999 c 0
 357.999 741.999 352.999 740.999 348.999 740.999 c 0
 345.999 740.999 341.999 741.999 339.999 742.999 c 0
 337.999 743.999 333.999 745.999 330.999 746.999 c 0
 328.999 747.999 324.999 750.999 323.999 752.999 c 2
 321.999 754.999 319.999 758.999 319.999 760.999 c 0
 319.999 761.999 321.999 765.999 323.999 769.999 c 0
 324.999 772.999 326.999 776.999 327.999 778.999 c 1
 328.999 779.999 330.999 782.999 332.999 783.999 c 1
 333.999 785.999 336.999 790.999 338.999 795.999 c 0
 340.999 800.999 343.999 805.999 344.999 806.999 c 1
 345.999 806.999 348.999 813.999 352.999 820.999 c 0
 355.999 827.999 359.999 834.999 360.999 835.999 c 1
 362.999 836.999 366.999 841.999 369.999 845.999 c 0
 374.999 851.999 377.999 853.999 385.999 856.999 c 1
 390.999 857.999 396.999 859.999 399.999 859.999 c 1
 402.999 860.999 407.999 861.999 410.999 862.999 c 1
EndSplineSet
Validated: 33
EndChar
StartChar: uni00E5
Encoding: 229 229 161
Width: 491
GlyphClass: 2
Flags: W
LayerCount: 2
Fore
SplineSet
313 228 m 0
 311 231 310 231 292 232 c 0
 282 232 271 231 266 231 c 1
 262 230 255 230 250 230 c 1
 244 231 241 230 233 226 c 0
 225 222 221 221 213 221 c 2
 202 221 l 1
 201 220 196 217 192 213 c 2
 188 210 182 204 177 201 c 0
 171 197 169 194 163 183 c 0
 157 170 157 169 155 151 c 0
 155 139 155 130 156 123 c 0
 157 118 159 110 161 106 c 0
 163 102 169 95 175 89 c 0
 181 83 187 78 193 76 c 2
 198 73 206 71 211 70 c 0
 216 69 223 68 228 68 c 1
 232 69 242 69 249 70 c 0
 256 71 264 72 265 73 c 2
 267 73 271 77 274 81 c 1
 278 84 281 88 281 88 c 1
 281 89 282 90 283 90 c 0
 284 90 289 93 294 97 c 0
 301 103 303 106 309 118 c 0
 314 128 317 135 317 142 c 1
 318 147 319 153 320 155 c 0
 322 158 322 168 323 184 c 0
 323 208 323 209 320 217 c 0
 318 221 315 226 313 228 c 0
253 476 m 0
 260 476.5 267 476.75 272.5 476.75 c 0
 278 476.75 282 476.5 283 476 c 2
 285 476 289 475 292 474 c 1
 294 472 302 471 310 470 c 0
 319 470 326 468 329 467 c 0
 331 466 334 464 334 463 c 1
 335 462 338 461 341 460 c 0
 345 459 350 458 354 457 c 0
 357 456 364 452 369 448 c 0
 374 444 379 441 379 441 c 1
 380 441 384 437 389 433 c 0
 394 428 399 425 400 425 c 1
 400 425 403 422 406 420 c 0
 410 416 412 412 414 407 c 0
 415 403 416 398 416 397 c 0
 416 396 419 392 422 388 c 0
 425 384 429 379 430 375 c 0
 431 372 432 365 433 359 c 1
 433 353 435 346 436 343 c 0
 438 338 438 325 439 224 c 0
 439.871 136.004 440 109 441 102 c 0
 442 97 443 89 443 83 c 0
 443 77 442 70 441 67 c 0
 440 62 440 59 442 54 c 0
 443 50 444 42 444 36 c 0
 444 29 443 25 441 21 c 0
 439 18 437 14 435 11 c 0
 433 9 429 6 426 5 c 0
 422 3 421 4 413 6 c 0
 406 8 399 9 376 9 c 0
 348 9 348 9 345 12 c 1
 344 14 342 20 340 25 c 1
 339 30 337 39 337 44 c 0
 337 52 336 55 333 60 c 0
 330 65 328 66 325 66 c 0
 323 66 319 64 314 58 c 0
 309 53 303 46 300 41 c 0
 298 37 293 32 291 30 c 0
 288 28 283 26 280 26 c 1
 277 25 273 23 271 21 c 0
 269 19 264 17 260 15 c 0
 257 13 251 9 247 6 c 0
 243 3 239 1 236 1 c 0
 233 1 228 0 223 -1 c 0
 217 -3 209 -4 188 -4 c 0
 164 -4 160 -3 155 -1 c 1
 152 1 145 2 140 3 c 1
 134 3 129 4 127 5 c 0
 125 6 119 8 114 8 c 0
 106 9 104 10 94 17 c 0
 88 21 80 27 76 31 c 1
 73 35 67 42 63 47 c 0
 59 52 53 62 50 68 c 0
 47 74 44 81 43 83 c 0
 42 85 41 94 40 101 c 0
 39 109 38 118 37 122 c 1
 37 126 37 132 39 137 c 0
 40 141 41 148 41 151 c 0
 41 155 42 160 43 163 c 0
 44 165 45 170 46 175 c 0
 47 179 50 187 52 192 c 0
 55 198 58 203 59 203 c 1
 61 204 63 208 66 211 c 1
 68 215 73 221 77 225 c 2
 80 229 85 235 88 238 c 0
 90 241 95 244 97 246 c 1
 100 247 106 250 110 252 c 0
 115 254 121 258 123 261 c 1
 126 263 131 267 133 268 c 0
 136 269 142 270 147 270 c 0
 154 270 159 272 171 276 c 0
 179 279 190 282 194 283 c 1
 199 283 204 284 207 285 c 1
 209 287 218 288 230 289 c 0
 242 289 251 291 257 293 c 0
 261 294 268 295 271 295 c 0
 275 295 281 295 284 294 c 0
 289 292 292 292 299 294 c 0
 304 295 311 298 316 300 c 0
 320 302 323 305 324 306 c 1
 324 307 324 318 323 331 c 0
 323 345 322 355 320 359 c 0
 319 361 317 367 317 371 c 1
 316 375 315 380 314 382 c 0
 313 384 310 387 308 389 c 0
 305 391 302 394 299 396 c 0
 297 398 292 401 288 403 c 0
 285 404 280 407 277 409 c 0
 275 411 271 413 268 414 c 1
 265 414 256 414 249 413 c 0
 242 412 231 410 224 409 c 0
 217 407 210 405 206 402 c 0
 203 400 199 396 197 394 c 0
 195 392 191 386 188 381 c 0
 184 375 181 370 180 368 c 0
 179 366 177 364 177 362 c 1
 176 361 174 358 172 356 c 0
 170 354 166 352 162 350 c 0
 159 348 151 346 145 345 c 1
 139 345 131 344 127 344 c 0
 123 344 117 345 114 346 c 0
 111 347 104 348 98 348 c 0
 93 348 87 348 84 347 c 0
 82 346 78 346 73 347 c 0
 67 348 64 349 61 353 c 0
 59 357 57 360 57 364 c 0
 57 367 59 371 60 374 c 1
 62 376 63 381 64 383 c 0
 65 386 67 392 69 397 c 1
 72 402 76 409 79 411 c 0
 82 414 91 422 98 429 c 0
 106 436 114 443 117 445 c 0
 120 447 125 450 129 452 c 0
 133 454 141 457 147 459 c 1
 153 460 162 464 167 466 c 0
 173 469 178 471 186 471 c 1
 191 472 199 473 202 474 c 0
 207 476 212 476 218 476 c 0
 220.5 475.5 225.75 475.25 232.125 475.25 c 0
 238.5 475.25 246 475.5 253 476 c 0
269 671 m 2
 264 675.167 261.084 677.25 257.936 677.25 c 0
 257.306 677.25 256.667 677.167 256 677 c 2
 253 677 245 676 239 674 c 0
 231 672 224 668 216 663 c 0
 210 659 202 653 199 649 c 2
 195 645 193 641 193 639 c 0
 193 636 194 633 195 630 c 1
 197 627 197 623 196 616 c 2
 196 611 195 604 195 601 c 2
 194 597 195 594 197 590 c 0
 199 586 204 580 211 575 c 0
 218 570 224 565 227 565 c 1
 230 564 241 564 252 565 c 0
 270 565 272 565 279 569 c 0
 283 572 287 574 287 575 c 1
 288 576 291 577 293 579 c 0
 295 581 298 586 301 596 c 0
 305 608 306 612 305 618 c 0
 305 622 302 631 300 637 c 0
 298 643 295 650 293 652 c 0
 291 655 286 659 283 661 c 0
 280 663 274 668 269 671 c 2
215.001 700 m 1
 220.001 701 225.001 702 230.001 702 c 0
 234.001 702 246.001 701 256.001 700 c 0
 266.001 699 277.001 697 280.001 696 c 2
 283.001 696 288.001 693 292.001 690 c 0
 295.001 687 300.001 684 303.001 683 c 1
 306.001 681 311.001 678 314.001 675 c 0
 317.001 671 320.001 666 320.001 663 c 1
 321.001 659 325.001 650 329.001 642 c 0
 334.001 632 336.001 627 336.001 623 c 0
 336.001 619 335.001 611 334.001 604 c 0
 332.001 595 330.001 588 326.001 580 c 0
 323.001 573 320.001 567 319.001 567 c 1
 318.001 566 317.001 564 317.001 562 c 1
 316.001 559 314.001 556 312.001 554 c 2
 311.001 552 304.001 547 297.001 544 c 2
 275.001 535 l 2
 268.001 533 262.001 532 247.001 532 c 0
 242.501 531.75 239.126 531.562 236.313 531.562 c 0
 227.876 531.562 224.501 533.25 211.001 540 c 0
 202.001 545 193.001 550 191.001 552 c 0
 189.001 554 184.001 561 181.001 567 c 0
 178.001 573 174.001 579 173.001 581 c 1
 171.001 583 169.001 587 168.001 589 c 0
 167.001 592 166.001 598 165.001 603 c 0
 165.001 607 163.001 615 162.001 620 c 0
 160.001 628 160.001 630 162.001 635 c 0
 163.001 639 166.001 645 168.001 648 c 0
 170.001 652 173.001 656 174.001 658 c 2
 178.001 666 l 1
 180.001 668 187.001 676 194.001 684 c 0
 204.001 695 208.001 697 215.001 700 c 1
EndSplineSet
Validated: 33
EndChar
StartChar: uni00EF
Encoding: 239 239 171
Width: 248
GlyphClass: 2
Flags: W
LayerCount: 2
Fore
SplineSet
137 461 m 0
 141 462 148.001 462.001 152.001 462.001 c 1
 156.001 461.001 161.001 460.001 164.001 459.001 c 0
 167.001 458.001 171.001 456.001 173.001 455.001 c 1
 174.001 453.001 177.001 449.001 179.001 446.001 c 0
 182.001 440.001 182.001 438.001 182.001 364.001 c 0
 182.001 315.001 182.001 286.001 181.001 282.001 c 0
 180.001 276.001 180.001 272.001 182.001 261.001 c 0
 184.001 250.001 184.001 245.001 183.001 237.001 c 0
 182.001 230.001 182.001 201.001 182.001 171.001 c 0
 182.001 123.001 182.001 116.001 185.001 108.001 c 0
 186.501 103.501 187.251 101.001 187.251 98.501 c 0
 187.251 96.001 186.501 93.501 185.001 89.001 c 0
 184.001 83.001 183.001 73.001 183.001 53.001 c 0
 182.001 39.001 183.001 26.001 183.001 25.001 c 1
 184.001 24.001 184.001 21.001 183.001 17.001 c 2
 183.001 14.001 181.001 10.001 179.001 8.00098 c 0
 177.001 6.00098 172.001 4.00098 168.001 3.00098 c 0
 164.001 2.00098 158.001 1.00098 154.001 1.00098 c 0
 150.001 1.00098 145.001 0.000976562 142.001 -0.999023 c 0
 139.001 -1.99902 133.001 -2.99902 128.001 -2.99902 c 0
 123.001 -2.99902 116.001 -1.99902 113.001 -0.999023 c 0
 111.001 0.000976562 103.001 2.00098 96.001 2.00098 c 1
 89.001 3.00098 81.001 4.00098 78.001 5.00098 c 0
 74.001 6.00098 71.001 9.00098 69.001 12.001 c 0
 67.001 16.001 67.001 20.001 67.001 40.001 c 0
 67.001 53.001 67.001 66.001 68.001 69.001 c 0
 69.001 73.001 69.001 76.001 68.001 78.001 c 0
 67.001 81.001 67.001 85.001 67.001 88.001 c 0
 67.001 91.001 66.001 99.001 64.001 105.001 c 0
 63.001 109.501 62.501 112.751 62.501 116.501 c 0
 62.501 120.251 63.001 124.501 64.001 131.001 c 2
 64.001 139.001 66.001 161.001 66.001 179.001 c 0
 66.415 189.771 66.6572 197.28 66.6572 202.88 c 0
 66.6572 210.8 66.1719 214.9 65 219.001 c 0
 63 224.001 63 231.001 63 247.001 c 0
 64 258.001 64 268.001 65 269.001 c 1
 65 292.001 l 2
 66 307.001 66 317.001 68 321.001 c 1
 69 327.001 69 330.001 68 336.001 c 0
 67 341.001 66 353.001 65 363.001 c 0
 64 376.001 64 383.001 65 390.001 c 0
 65.707 394.243 66.4141 402.985 66.4141 411.985 c 0
 66.4141 415.713 66.293 419.485 66 423 c 0
 66 445 66 446 69 451 c 1
 71 453 75 456 78 458 c 1
 83 460 86 460 106 460 c 0
 121 459 130 459 137 461 c 0
174.001 656.001 m 0
 178.652 659.877 180.299 661.35 184.065 661.35 c 0
 185.157 661.35 186.428 661.226 188.001 661.001 c 0
 192.001 660.001 201.001 659.001 208.001 659.001 c 1
 215.001 658.001 224.001 656.001 228.001 655.001 c 0
 231.001 654.001 236.001 651.001 237.001 650.001 c 0
 239.001 648.001 241.001 644.001 242.001 641.001 c 0
 244.001 637.001 245.001 633.001 245.001 631.001 c 0
 245.001 629.001 244.001 626.001 243.001 625.001 c 1
 242.001 623.001 241.001 612.001 241.001 600.001 c 0
 241.001 580.001 241.001 578.001 238.001 576.001 c 0
 236.001 574.001 232.001 572.001 229.001 570.001 c 0
 225.001 568.001 218.001 567.001 201.001 567.001 c 0
 181.001 566.001 179.001 566.001 175.001 569.001 c 0
 173.001 571.001 170.001 574.001 169.001 576.001 c 0
 168.001 578.001 166.001 587.001 165.001 597.001 c 0
 165.001 606.001 163.001 619.001 163.001 625.001 c 0
 162.001 634.001 163.001 637.001 165.001 643.001 c 0
 167.001 647.001 171.001 653.001 174.001 656.001 c 0
21.001 657.001 m 0
 29.001 661.001 32.001 661.001 39.001 660.001 c 1
 59.001 660.001 l 2
 70.001 660.001 72.001 660.001 77.001 656.001 c 1
 81.001 654.001 83.001 651.001 84.001 647.001 c 1
 84.001 644.001 84.001 637.001 83.001 630.001 c 0
 82.001 620.001 82.001 616.001 84.001 608.001 c 0
 85.001 600.001 86.001 596.001 84.001 590.001 c 0
 83.001 586.001 81.001 580.001 80.001 578.001 c 0
 79.001 575.001 76.001 571.001 74.001 570.001 c 0
 71.001 568.001 66.001 567.001 58.001 566.001 c 0
 52.001 565.001 45.001 564.001 44.001 563.001 c 1
 42.001 562.001 38.001 561.001 36.001 561.001 c 0
 33.001 561.001 27.001 563.001 23.001 564.001 c 0
 18.001 566.001 13.001 569.001 11.001 571.001 c 2
 9.00098 572.001 6.00098 577.001 5.00098 580.001 c 2
 2.00098 584.001 1.00098 589.001 1.00098 604.001 c 0
 0.000976562 614.001 0.000976562 626.001 0.000976562 631.001 c 0
 0.000976562 638.001 0.000976562 640.001 6.00098 646.001 c 0
 10.001 651.001 15.001 654.001 21.001 657.001 c 0
EndSplineSet
Validated: 33
EndChar
StartChar: uni00F2
Encoding: 242 242 174
Width: 558
GlyphClass: 2
Flags: W
LayerCount: 2
Fore
SplineSet
294 400 m 1
 291 402 287 402 285 402 c 0
 284 402 279 402 275 401 c 2
 271 401 264 399 260 398 c 0
 255 396 249 395 247 395 c 0
 244 395 238 394 234 392 c 2
 230 391 225 389 224 388 c 1
 223 388 219 385 216 382 c 0
 212 379 207 375 205 372 c 2
 202 370 198 366 196 363 c 0
 193 360 189 353 186 348 c 1
 184 343 179 336 177 333 c 0
 173 328 171 326 171 319 c 2
 170 315 169 308 168 304 c 0
 167 301 166 295 165 292 c 0
 164 288 164 282 164 278 c 0
 164 274 164.09 263.009 165 253 c 0
 166 242 167 229 166 222 c 2
 166 216 165 206 163 201 c 1
 162.5 198 162.25 195 162.25 192.5 c 0
 162.25 190 162.5 188 163 187 c 2
 163 186 164 180 165 175 c 1
 165 170 168 164 170 159 c 0
 172 155 175 148 176 144 c 0
 177 139 181 133 183 130 c 0
 186 126 188 122 188 118 c 0
 188 115 189 111 189 110 c 0
 189 108 192 104 195 101 c 0
 198 98 201 95 202 95 c 1
 210 89 l 1
 214 85 220 81 224 79 c 0
 227 77 231 75 234 74 c 0
 236 73 239 72 241 72 c 2
 260 72 l 2
 268 72 282 71 290 71 c 0
 301 71 306 72 310 74 c 0
 312 75 318 77 321 78 c 0
 325 79 331 81 335 83 c 0
 339 85 344 88 347 90 c 0
 349 92 353 94 354 95 c 1
 355 97 358 100 360 103 c 0
 362 106 365 112 366 117 c 0
 367 121 369 126 371 129 c 2
 372 132 374 137 376 140 c 0
 378 143 379 151 380 160 c 0
 381 170 383 178 385 182 c 0
 386 185 388 193 389 199 c 0
 390 205 390 215 390 222 c 1
 389 229 388 237 387 241 c 0
 385 247 385 249 387 253 c 0
 388 256 389 260 389 263 c 0
 389 266 388 273 387 280 c 0
 386 286 385 295 385 299 c 0
 385 304 383 311 382 316 c 1
 380 320 378 327 378 330 c 1
 377 334 375 339 373 342 c 0
 370 345 367 350 366 352 c 0
 365 355 361 362 357 367 c 0
 353 372 347 377 345 379 c 1
 334 386 l 2
 330 388 327 389 326 389 c 0
 324 389 322 390 319 392 c 0
 317 393 312 395 308 396 c 0
 303 397 297 399 294 400 c 1
254 474 m 0
 257 475 264 476 276 476 c 0
 290 476 295 476 298 474 c 0
 301 472 309 471 319 470 c 0
 332 469 339.973 467.908 353.001 464 c 0
 363.001 461 375.001 457 380.001 456 c 1
 385.001 454 390.001 453 391.001 452 c 0
 392.001 451 395.001 449 398.001 448 c 1
 400.001 446 405.001 442 409.001 439 c 2
 423.001 428 l 1
 427.001 426 433.001 422 435.001 421 c 0
 438.001 419 444.001 414 449.001 409 c 0
 454.001 404 460.001 399 462.001 396 c 0
 464.001 394 467.001 392 468.001 390 c 2
 469.001 389 471.001 386 473.001 382 c 0
 474.001 379 476.001 373 477.001 369 c 1
 477.001 366 479.001 361 481.001 358 c 0
 483.001 355 486.001 350 488.001 346 c 0
 490.001 342 493.001 336 494.001 332 c 1
 494.001 329 496.001 324 497.001 321 c 0
 498.001 319 501.001 313 502.001 309 c 2
 504.001 305 505.001 297 506.001 290 c 1
 506.001 283 508.001 275 509.001 272 c 0
 510.001 268 511.001 263 511.001 260 c 0
 511.001 257 512.001 251 514.001 247 c 0
 515.652 242.596 516.395 240.616 516.395 238.559 c 0
 516.395 236.879 515.899 235.146 515 232 c 0
 513 226 512 219 511 206 c 0
 511 196 510 184 509 181 c 0
 508 178 507 173 507 170 c 0
 507 168 505 161 503 156 c 2
 502 151 500 144 499 142 c 0
 498 140 494 134 491 129 c 0
 488 124 482 113 478 105 c 0
 474 97 468 87 464 83 c 1
 461 79 457 74 455 71 c 0
 454 69 449 64 444 61 c 0
 439 57 433 52 431 50 c 0
 429 47 423 43 419 40 c 0
 414 37 407 31 403 27 c 0
 396 19 395 19 376 12 c 0
 365.017 7.9541 354 4 352 3 c 1
 350 1 346 -1 343 -2 c 0
 339 -3 336 -3 332 -1 c 0
 329 0 325 1 323 1 c 0
 321 1 317 0 315 -1 c 0
 312 -2 307 -5 302 -6 c 2
 296.75 -8.25 293.188 -9.375 282.875 -9.375 c 0
 279.438 -9.375 275.25 -9.25 270 -9 c 0
 257 -9 240 -8 233 -8 c 2
 226 -7 216 -5 211 -5 c 1
 204 -4 196 0 180 8 c 0
 167 14 156 19 153 20 c 1
 151 20 146 22 142 24 c 0
 137 27 128 34 118 44 c 0
 109 53 101 60 100 60 c 0
 99 60 96 62 94 64 c 0
 92 66 90 70 90 71 c 1
 89 73 87 76 85 78 c 0
 83 81 80 85 79 89 c 1
 75 95 l 2
 74 96 72 101 69 107 c 1
 67 113 64 123 62 128 c 0
 60 134 57 141 56 143 c 2
 49 164 l 2
 46 173 44 182 44 185 c 0
 44 187 42 195 41 202 c 0
 39 210 38 220 38 227 c 1
 39 234 40 241 41 245 c 1
 43 249 43 255 43 265 c 0
 44 276 44 282 46 289 c 0
 48 293 49 299 49 301 c 0
 49 302 50 307 52 310 c 1
 53 313 54 319 55 323 c 1
 55 327 57 332 58 336 c 1
 60 339 63 346 66 351 c 0
 69 355 72 362 74 365 c 0
 76 368 80 374 83 377 c 0
 85 380 91 389 95 396 c 0
 99 403 104 412 107 414 c 0
 110 417 115 421 119 423 c 0
 123 425 128 429 130 432 c 0
 133 436 137 439 140 440 c 0
 142 441 148 444 152 447 c 0
 157 450 162 452 166 453 c 1
 170 453 179 456 186 459 c 0
 194 462 202 464 209 465 c 1
 215 465 221 466 223 467 c 0
 225 468 231 470 238 470 c 1
 244 471 251 473 254 474 c 0
216 680 m 0
 218 681 225 682 231 682 c 0
 237 682 243 681 248 679 c 0
 252 677 258 674 260 672 c 0
 262 670 267 664 271 660 c 1
 274 655 277 651 277 650 c 1
 277 650 279 645 282 640 c 0
 285 634 288 627 288 625 c 1
 289 623 292 618 295 614 c 1
 299 610 303 603 304 599 c 1
 306 595 309 588 312 583 c 0
 314 579 316 572 316 569 c 0
 317 563 317 562 313 559 c 1
 310 555 309 555 294 555 c 0
 281 556 279 556 270 560 c 0
 262 565 260 566 253 577 c 0
 248 583 243 591 240 594 c 0
 238 597 235 600 234 600 c 1
 234 600 230 602 226 605 c 0
 222 608 215 613 210 616 c 0
 205 619 200 623 198 626 c 0
 196 629 190 635 185 641 c 0
 180 646 175 652 174 654 c 2
 172 656 171 661 171 664 c 0
 171 670 172 672 175 674 c 0
 177 675 184 676 194 677 c 0
 203 677 213 679 216 680 c 0
EndSplineSet
Validated: 33
EndChar
StartChar: uni00F3
Encoding: 243 243 175
Width: 554
GlyphClass: 2
Flags: W
LayerCount: 2
Fore
SplineSet
282 405 m 0
 280 406 276 407.001 275 407.001 c 2
 274 407.501 272.75 407.751 271.5 407.751 c 0
 270.25 407.751 269 407.501 268 407.001 c 2
 266 407.001 259 405.001 253 404.001 c 0
 246 402.001 235 398.001 228 394.001 c 0
 221 391.001 215 387.001 214 386.001 c 0
 213 385.001 208 380.001 203 376.001 c 0
 197 372.001 191 367.001 189 364.001 c 0
 187 362.001 185 357.001 184 353.001 c 2
 182 349.001 180 343.001 179 339.001 c 0
 178 336.001 176 332.001 175 330.001 c 1
 175 328.001 172 322.001 170 316.001 c 0
 167 308.001 167 303.001 167 293.001 c 0
 167 286.001 167 277.001 168 274.001 c 0
 169 269.001 169 265.001 168 259.001 c 0
 167 255.001 166 243.001 165 233.001 c 2
 165 208.001 l 1
 165 186.001 l 2
 166 177.001 167 168.001 169 162.001 c 0
 171 157.001 172 152.001 172 151.001 c 0
 172 149.001 175 143.001 177 138.001 c 0
 180 132.001 185 124.001 188 120.001 c 0
 191 117.001 195 111.001 197 107.001 c 0
 199 103.001 202 98.001 204 96.001 c 0
 206 93.001 211 89.001 214 87.001 c 1
 217 86.001 224 84.001 229 83.001 c 0
 233 82.001 237 81.001 238 81.001 c 1
 238 80.001 241 79.001 245 78.001 c 0
 247.247 77.1016 248.889 76.6064 250.741 76.6064 c 0
 253.01 76.6064 255.596 77.3486 260 79 c 0
 265.072 80.9023 268.135 81.5986 274.793 81.5986 c 0
 278.637 81.5986 283.68 81.3662 291 81 c 0
 303 81 315 80 319 80 c 0
 324 79 325 79 334 87 c 0
 339 92 344 95 345 95 c 1
 345 95 348 99 350 102 c 0
 352 106 358 113 362 118 c 0
 367 123 371 128 372 132 c 0
 373 135 374 141 374 146 c 0
 374 151 375 156 377 159 c 2
 378 163 381 167 382 170 c 2
 384 173 385 179 386 190 c 0
 386 199 387 208 388 211 c 1
 390 214 390 223 390 239 c 0
 390 256 390 264 388 269 c 0
 387 273 386 280 386 287 c 0
 386 293 385 301 383 306 c 0
 382 310 380 318 380 323 c 1
 379 329 377 337 374 342 c 2
 372 348 369 354 367 357 c 2
 366 360 358 368 350 376 c 0
 342 383 336 389 335 389 c 0
 334 389 330 393 324 397 c 0
 319 401 313 405 311 405 c 2
 309 406 305 406 303 405 c 1
 300 405 296 404 293 403 c 1
 289 403 285 403 282 405 c 0
244 478.001 m 0
 248 479.001 255 480.001 260 480.001 c 1
 265 479.001 282 478.001 299 478.001 c 0
 324 476.001 332 475.001 343 473.001 c 0
 350 471.001 358 468.001 361 467.001 c 0
 365 466.001 369 464.001 372 464.001 c 0
 375 464.001 379 463.001 381 462.001 c 1
 386 457.001 l 2
 387 456.001 396 451.001 407 446.001 c 0
 426 437.001 426 436.001 442 420.001 c 0
 450 411.001 461 400.001 464 395.001 c 2
 468 391.001 471 386.001 472 384.001 c 1
 472 382.001 475 376.001 477 372.001 c 0
 479 367.001 482 363.001 483 362.001 c 0
 484 361.001 485 358.001 486 357.001 c 1
 487 355.001 490 351.001 491 347.001 c 2
 493 344.001 497 334.001 500 324.001 c 0
 503 314.001 507 302.001 508 296.001 c 0
 509 290.001 510 278.001 510 269.001 c 0
 510 260.001 511 250.001 512 247.001 c 2
 512 245.668 512.444 242.112 512.444 238.112 c 0
 512.444 236.112 512.333 234.001 512 232.001 c 0
 512 226.001 511 219.001 509 216.001 c 1
 508 213.001 507 205.001 506 194.001 c 0
 505 185.001 504 172.001 503 165.001 c 0
 502 156.001 500 149.001 496 142.001 c 0
 493 136.001 490 129.001 488 127.001 c 0
 486 124.001 484 121.001 484 120.001 c 0
 484 119.001 482 113.001 479 107.001 c 0
 476 101.001 471 93.001 469 90.001 c 0
 467 87.001 462 81.001 458 78.001 c 0
 454 75.001 450 71.001 450 70.001 c 0
 450 69.001 446 64.001 441 59.001 c 0
 436 54.001 430 49.001 427 47.001 c 0
 425 46.001 419 42.001 414 37.001 c 0
 409 33.001 405 29.001 405 30.001 c 0
 405 31.001 401 29.001 395 26.001 c 0
 390 23.001 384 20.001 381 19.001 c 0
 378 18.001 371 15.001 366 13.001 c 2
 345 6.00098 l 1
 339 5.00098 328 3.00098 319 3.00098 c 0
 311 2.00098 302 1.00098 300 0.000976562 c 0
 297 -0.999023 289 -2.99902 282 -2.99902 c 2
 275 -3.99902 266 -4.99902 262 -4.99902 c 0
 260.333 -5.33203 259 -5.55469 257.667 -5.55469 c 0
 255 -5.55469 252.333 -4.66602 247 -1.99902 c 0
 238 3.00098 236 3.00098 223 3.00098 c 0
 215 3.00098 208 3.00098 207 4.00098 c 0
 206 5.00098 199 7.00098 191 10.001 c 0
 183 12.001 173 16.001 169 18.001 c 0
 166 20.001 156 25.001 148 30.001 c 0
 139 34.001 129 41.001 124 45.001 c 0
 120 49.001 112 54.001 108 56.001 c 0
 102 59.001 99 62.001 96 68.001 c 1
 93 72.001 90 76.001 90 77.001 c 1
 89 77.001 86 79.001 83 82.001 c 0
 81 84.001 78 87.001 77 89.001 c 2
 76 90.001 75 96.001 73 101.001 c 2
 72 106.001 69 113.001 66 117.001 c 0
 64 121.001 60 125.001 59 128.001 c 1
 57 130.001 56 133.001 55 135.001 c 0
 54 137.001 53 140.001 52 142.001 c 1
 51 143.001 50 152.001 50 162.001 c 0
 49 176.001 48 181.001 43 195.001 c 0
 38 210.001 38 211.001 38 229.001 c 0
 38 243.001 39 249.001 41 253.001 c 0
 42 256.001 43 263.001 44 277.001 c 0
 45 291.001 46 300.001 48 306.001 c 0
 49 311.001 50 317.001 50 321.001 c 0
 50 325.001 51 329.001 52 331.001 c 0
 53 333.001 56 337.001 59 341.001 c 1
 63 344.001 65 349.001 66 352.001 c 0
 67 355.001 69 361.001 71 366.001 c 0
 73 370.001 76 376.001 77 379.001 c 1
 79 381.001 85 389.001 91 397.001 c 2
 98 404.001 104 412.001 105 414.001 c 0
 106 416.001 109 421.001 111 424.001 c 0
 114 428.001 121 434.001 127 438.001 c 0
 134 443.001 142 447.001 145 448.001 c 1
 148 448.001 154 450.001 157 452.001 c 2
 163 456.001 l 1
 164 456.001 167 458.001 169 460.001 c 0
 172 462.001 176 465.001 178 466.001 c 1
 180 468.001 188 469.001 194 470.001 c 0
 201 471.001 209 473.001 211 474.001 c 0
 214 475.001 220 476.001 227 476.001 c 0
 233 476.001 241 477.001 244 478.001 c 0
325 686.001 m 1
 329 687.001 334 687.001 339 687.001 c 1
 342 686.001 352 686.001 360 686.001 c 0
 373 685.001 375 685.001 379 681.001 c 1
 383 678.001 384 677.001 384 671.001 c 0
 384 667.001 383 662.001 381 659.001 c 2
 380 656.001 377 653.001 375 651.001 c 0
 373 649.001 370 648.001 369 648.001 c 1
 369 648.001 362 643.001 355 636.001 c 2
 328 609.001 l 2
 319 601.001 310 591.001 307 587.001 c 0
 304 583.001 299 578.001 297 575.001 c 0
 295 572.001 292 569.001 290 568.001 c 0
 288 567.001 284 565.001 281 564.001 c 0
 278 563.001 273 561.001 270 560.001 c 0
 267 559.001 263 558.001 260 558.001 c 0
 258 558.001 255 560.001 252 562.001 c 2
 244 570.001 l 2
 241 573.001 240 574.001 241 578.001 c 1
 241 581.001 243 587.001 245 592.001 c 0
 247 599.001 251 606.001 257 612.001 c 1
 261 618.001 267 626.001 269 631.001 c 0
 271 635.001 275 642.001 278 646.001 c 0
 281 650.001 285 656.001 287 661.001 c 0
 289 666.001 293 671.001 295 673.001 c 0
 298 675.001 303 679.001 306 680.001 c 0
 310 682.001 315 683.001 316 683.001 c 0
 317 683.001 322 684.001 325 686.001 c 1
EndSplineSet
Validated: 33
EndChar
StartChar: uni00F4
Encoding: 244 244 176
Width: 551
GlyphClass: 2
Flags: W
LayerCount: 2
Fore
SplineSet
300 405 m 0
 293 407 286 408 283 408 c 0
 280 408 275 408 273 407 c 0
 270 406 268 405 267 404 c 0
 266 403 261 402 257 402 c 0
 253 402 246 403 242 403 c 0
 236 404 233 404 228 401 c 2
 224 400 219 396 215 393 c 0
 212 390 207 384 204 379 c 0
 201 375 197 369 195 367 c 0
 193 365 190 360 188 357 c 0
 186 353 182 347 179 343 c 1
 175 339 172 335 172 334 c 0
 172 333 171 328 169 324 c 1
 168 319 166 309 166 301 c 0
 165 291 164 285 162 282 c 0
 160 278 160 273 160 248 c 0
 160 222 160 217 162 212 c 0
 165 206 165 200 166 183 c 0
 166 163 167 159 170 151 c 0
 172 146 175 138 178 133 c 0
 181 128 184 122 186 120 c 1
 187 117 189 113 190 111 c 0
 192 108 196 103 200 100 c 0
 204 97 208 93 210 92 c 2
 212 90 216 88 219 86 c 1
 223 85 227 84 229 84 c 0
 230 84 235 82 238 79 c 0
 242 76 246 74 248 74 c 0
 250 74 258 76 265 77 c 0
 273 79 281 80 284 79 c 1
 300 79 l 2
 310 79 312 79 322 85 c 0
 328 89 338 95 343 99 c 0
 348 104 356 110 359 114 c 1
 363 118 365 122 366 127 c 0
 367 131 369 137 370 139 c 0
 371 142 373 147 373 150 c 1
 374 153 375 157 376 159 c 0
 377 162 379 165 380 166 c 0
 381 167 383 173 384 179 c 0
 385 184 386 192 386 196 c 0
 386 200 385 229 385 259 c 0
 384 315 384 315 380 328 c 0
 378 335 375 341 374 342 c 1
 373 344 372 345 372 346 c 1
 372 346 370 350 367 355 c 0
 364 359 357 368 352 374 c 0
 344 383 340 386 331 390 c 0
 325 393 318 397 315 399 c 0
 313 401 306 404 300 405 c 0
273 480 m 1
 274.414 480.707 276.328 481.414 278.742 481.414 c 0
 279.742 481.414 280.828 481.293 282 481 c 0
 285 481 294 480 302 480 c 0
 313 480 321 479 332 475 c 0
 341 473 349 470 351 469 c 1
 353 467 357 466 360 465 c 1
 363 465 367 463 369 462 c 0
 372 461 378 459 384 458 c 1
 393 458 396 456 408 449 c 0
 416 444 425 437 431 431 c 0
 436 425 444 417 448 413 c 0
 452 408 457 402 460 398 c 0
 463 395 468 388 472 384 c 0
 475 381 478 376 478 375 c 0
 478 373 479 371 481 369 c 1
 482 367 484 363 486 360 c 1
 487 357 488 353 489 350 c 0
 490 348 492 342 494 337 c 0
 496 332 498 327 498 325 c 1
 499 324 501 318 503 312 c 1
 504 306 506 299 506 296 c 0
 506 293 507 286 508 281 c 0
 509 276 509.5 273.25 509.5 270.625 c 0
 509.5 268 509 265.5 508 261 c 0
 506 254 506 246 505 224 c 0
 505 201 505 194 503 190 c 0
 502 188 501 181 500 175 c 1
 500 164 499 162 495 156 c 0
 490 150 490 148 490 139 c 0
 490 129 489 128 485 122 c 0
 483 119 478 113 474 110 c 1
 468 104 466 101 465 96 c 0
 465 93 462 86 460 81 c 0
 456 73 454 71 442 62 c 0
 435 56 427 51 425 50 c 0
 423 49 419 46 416 44 c 1
 414 41 407 36 402 32 c 0
 397 28 390 24 388 23 c 0
 385 22 380 20 377 20 c 1
 373 19 368 17 364 14 c 0
 359 10 357 9 347 8 c 0
 341 8 334 6 331 5 c 0
 327 4 318 3 302 2 c 0
 285.004 0.9375 277 0 274 -1 c 0
 270 -3 264 -4 254 -4 c 0
 243 -4 238 -3 235 -1 c 1
 232 0 227 1 223 2 c 0
 219 3 208 5 198 8 c 0
 188 10 178 12 175 13 c 0
 172 14 168 15 166 16 c 0
 164 17 159 21 155 24 c 0
 150 28 145 31 144 31 c 0
 143 31 138 33 133 35 c 0
 127 38 121 43 113 50 c 1
 107 57 101 63 100 64 c 2
 88 76 l 2
 82 81 78 86 78 87 c 0
 78 88 76 92 74 96 c 0
 72 100 69 104 68 106 c 2
 67 107 66 110 65 112 c 1
 65 114 62 119 60 124 c 0
 58 129 55 136 54 140 c 1
 54 144 52 152 51 158 c 0
 50 164 47 171 46 175 c 2
 44 179 43 185 43 192 c 0
 43 198 42 205 40 209 c 1
 39 214 38 222 38 243 c 0
 38 267 38 272 40 277 c 0
 42 281 43 288 44 297 c 0
 44 304 45 312 46 314 c 0
 47 316 49 320 49 323 c 1
 50 326 54 336 58 345 c 0
 63 354 68 362 69 364 c 1
 71 365 72 367 72 368 c 0
 72 369 74 376 76 382 c 0
 78 389 82 397 84 399 c 0
 86 402 89 406 91 408 c 0
 93 410 98 414 103 417 c 0
 107 420 113 425 117 429 c 0
 121 433 127 437 129 439 c 0
 132 441 139 444 145 446 c 0
 151 448 157 451 158 453 c 1
 160 454 162 456 162 456 c 1
 163 456 167 458 172 460 c 1
 176 463 185 466 190 468 c 1
 195 469 202 471 206 472 c 1
 210 472 214 473 215 474 c 0
 216 475 225 476 235 477 c 0
 245 479 258 479 262 479 c 0
 267 479 272 480 273 480 c 1
270 686 m 1
 279 686 l 1
 284 685 293 684 301 683 c 0
 308 682 315 680 316 680 c 1
 318 679 323 674 328 668 c 0
 333 662 340 654 343 650 c 0
 346 646 350 640 352 636 c 0
 355 632 359 626 361 622 c 1
 364 619 366 616 366 615 c 0
 366 614 368 611 371 608 c 0
 373 606 377 600 380 596 c 0
 382 592 385 587 386 584 c 0
 387 582 388 578 388 575 c 0
 388 571 387 569 384 566 c 0
 381 563 378 561 372 561 c 2
 368 560 363 560 360 561 c 2
 357 561 354 563 353 563 c 1
 352 564 347 568 343 571 c 0
 339 574 333 580 330 583 c 0
 327 586 322 592 319 597 c 1
 315 601 309 609 304 614 c 0
 298 621 293 625 286 629 c 0
 281 631 275 633 272 633 c 0
 270 633 266 632 263 631 c 0
 261 630 257 627 254 623 c 0
 251 620 249 617 249 616 c 0
 249 615 245 612 241 608 c 0
 237 604 231 596 229 591 c 1
 226 586 221 581 219 578 c 1
 216 576 212 573 209 572 c 1
 198 565 l 2
 194 563 190 561 185 561 c 0
 181 561 175 562 172 563 c 0
 169 564 166 566 165 567 c 1
 163 567 161 570 159 573 c 0
 156 576 156 578 157 581 c 1
 157 583 160 588 164 592 c 2
 167 596 171 600 172 601 c 1
 172 603 176 608 180 612 c 0
 184 617 191 624 194 628 c 0
 198 633 203 639 205 642 c 0
 207 646 211 651 213 654 c 0
 215 657 220 663 225 668 c 0
 230 673 235 678 236 678 c 0
 237 678 240 679 243 681 c 1
 247 682 253 684 259 684 c 1
 265 685 270 685 270 686 c 1
EndSplineSet
Validated: 33
EndChar
StartChar: uni00FF
Encoding: 255 255 187
Width: 480
GlyphClass: 2
Flags: W
LayerCount: 2
Fore
SplineSet
41 480 m 2
 45 481 50.001 482 53.001 482 c 0
 55.001 482 58.001 481 59.001 480 c 0
 60.001 479 68.001 478 76.001 477 c 0
 89.001 477 94.001 477 101.001 479 c 0
 109.001 481 111.001 481 119.001 479 c 0
 129.001 477 129.001 477 137.001 460 c 0
 142.001 451 146.001 442 146.001 439 c 0
 146.001 437 147.001 433 149.001 430 c 0
 151.001 427 154.001 420 157.001 415 c 0
 161.001 407 162.001 404 162.001 395 c 0
 162.001 386 163.001 381 167.001 370 c 0
 170.001 361 174.001 351 175.001 346 c 0
 176.001 342 177.001 337 179.001 335 c 0
 180.001 334 182.001 330 183.001 326 c 1
 183.001 323 185.001 317 186.001 314 c 0
 187.001 310 189.001 303 192.001 298 c 0
 195.001 292 197.001 284 198.001 281 c 1
 198.001 277 199.001 272 201.001 269 c 1
 202.001 266 205.001 259 207.001 254 c 0
 209.001 249 211.001 240 213.001 234 c 1
 214.001 228 215.001 221 215.001 217 c 0
 215.001 213 216.001 207 218.001 203 c 2
 225.001 185 l 2
 227.001 179 228.001 173 228.001 172 c 0
 228.001 170 230.001 167 232.001 165 c 0
 234.001 162 238.001 160 240.001 159 c 1
 242.001 159 247.001 159 250.001 160 c 0
 253.001 161 257.001 163 258.001 165 c 1
 260.001 167 263.001 171 265.001 176 c 0
 267.001 180 270.001 187 272.001 192 c 0
 274.001 198 277.001 205 279.001 209 c 0
 280.001 212 282.001 220 282.001 225 c 0
 283.001 234 285.001 238 289.001 247 c 0
 292.001 254 296.001 261 297.001 263 c 0
 298.001 265 300.001 273 300.001 284 c 0
 301.001 300 301.001 301 306.001 308 c 0
 310.001 314 311.001 316 312.001 327 c 0
 312.001 335 314.001 340 316.001 344 c 0
 318.001 347 321.001 353 323.001 358 c 2
 326.001 363 328.001 370 329.001 374 c 0
 330.001 377 333.001 385 335.001 390 c 1
 338.001 395 340.001 401 340.001 403 c 0
 340.001 405 342.001 410 344.001 416 c 0
 346.001 421 348.001 430 349.001 436 c 0
 350.001 443 351.001 450 352.001 453 c 0
 354.001 457 357.001 463 359.001 466 c 0
 362.001 471 365.001 474 370.001 476 c 0
 373.001 477 378.001 479 380.001 480 c 1
 382.001 480 388.001 480 392.001 478 c 0
 399.001 476 402.001 476 407.001 477 c 0
 411.001 478 418.001 480 423.001 480 c 2
 428.001 481 437.001 481 444.001 481 c 1
 451.001 480 459.001 479 461.001 477 c 1
 463.001 476 467.001 474 468.001 471 c 2
 470.001 469 471.001 465 471.001 460 c 0
 471.001 457 469.001 448 467.001 441 c 0
 465.001 434 460.001 423 457.001 417 c 0
 453.001 410 448.001 401 445.001 397 c 0
 441.001 390 440.001 387 439.001 379 c 0
 439.001 374 437.001 368 435.001 365 c 2
 434.001 362 431.001 358 430.001 356 c 0
 429.001 354 427.001 348 425.001 344 c 2
 424.001 339 421.001 330 419.001 324 c 0
 417.001 317 415.001 310 415.001 307 c 0
 415.001 305 414.001 303 414.001 302 c 1
 413.001 301 411.001 296 408.001 289 c 0
 406.001 283 402.001 273 399.001 267 c 0
 396.001 261 394.001 255 394.001 253 c 0
 394.001 252 389.001 240 382.001 226 c 0
 376.001 213 370.001 200 370.001 197 c 1
 369.001 194 367.001 189 365.001 185 c 0
 363.001 181 361.001 176 359.001 174 c 0
 357.001 171 356.001 167 356.001 163 c 0
 356.001 159 355.001 154 354.001 153 c 2
 353.001 151 351.001 147 349.001 145 c 1
 348.001 142 346.001 138 344.001 135 c 1
 343.001 132 341.001 125 340.001 119 c 1
 338.001 114 336.001 106 334.001 102 c 0
 332.001 98 328.001 87 324.001 77 c 0
 321.001 67 317.001 56 315.001 52 c 0
 313.001 49 312.001 43 311.001 40 c 0
 310.001 37 309.001 32 307.001 29 c 1
 306.001 26 305.001 23 305.001 22 c 0
 305.001 21 303.001 16 301.001 10 c 0
 299.001 4 297.001 -2 297.001 -4 c 0
 297.001 -6 296.001 -9 295.001 -11 c 0
 294.001 -14 291.001 -20 287.001 -25 c 0
 282.001 -33 281.001 -37 280.001 -44 c 0
 280.001 -48 278.001 -57 276.001 -62 c 0
 274.001 -68 272.001 -75 272.001 -78 c 0
 272.001 -82 272.001 -87 271.001 -91 c 0
 270.001 -94 268.001 -97 267.001 -99 c 1
 266.001 -100 265.001 -103 264.001 -106 c 0
 263.001 -109 261.001 -117 259.001 -124 c 0
 257.001 -131 254.001 -141 251.001 -146 c 0
 249.001 -150 245.001 -156 243.001 -158 c 0
 240.001 -161 238.001 -161 214.001 -162 c 0
 195.001 -162 188.001 -163 184.001 -165 c 0
 182.001 -166 174.001 -168 167.001 -168 c 0
 162.983 -168.309 160.208 -168.522 158.083 -168.522 c 0
 153.332 -168.522 151.837 -167.455 147 -164 c 0
 142 -161 139 -156 137 -153 c 0
 135 -149 134 -143 134 -137 c 0
 134 -129 134 -128 139 -122 c 0
 142 -119 145 -115 146 -113 c 0
 147 -111 147 -107 147 -105 c 0
 147 -103 149 -97 150 -91 c 1
 152 -86 154 -81 154 -80 c 1
 155 -79 157 -74 159 -68 c 1
 162 -63 164 -56 164 -53 c 1
 165 -50 167 -44 170 -38 c 0
 172 -33 175 -25 176 -21 c 0
 177 -16 179 -10 180 -7 c 1
 180 -5 181 2 181 7 c 0
 181 13 180 24 178 32 c 0
 176 40 173 49 171 51 c 1
 170 53 167 59 164 64 c 0
 161 69 159 77 158 81 c 0
 157 86 155 93 153 97 c 0
 151 101 149 106 148 107 c 0
 147 108 145 112 143 116 c 0
 141 120 140 124 140 130 c 0
 141 139 140 139 135 144 c 0
 130 149 130 151 129 160 c 0
 129 167 128 172 124 180 c 0
 121 186 118 193 117 196 c 1
 117 199 113 208 108 215 c 0
 102 226 101 229 100 238 c 0
 99 246 98 250 95 255 c 0
 93 258 89 263 87 267 c 0
 85 270 82 277 80 281 c 0
 78 286 76 294 76 298 c 1
 75 302 73 307 72 309 c 0
 70 312 66 319 63 325 c 0
 60 331 58 337 58 338 c 0
 58 339 56 343 54 347 c 0
 52 351 50 357 49 359 c 0
 48 362 47 369 47 376 c 0
 46 387 46 388 41 396 c 0
 38 401 33 410 31 417 c 1
 28 423 23 434 19 441 c 0
 14 450 12 455 12 459 c 0
 12 463 13 466 14 468 c 1
 15 469 19 472 22 474 c 0
 25 476 29 478 31 479 c 1
 33 479 38 480 41 480 c 2
295.001 675 m 0
 299.668 677.667 301.667 678.556 309.297 678.556 c 0
 313.111 678.556 318.334 678.333 326.001 678 c 0
 348.001 678 349.001 678 352.001 675 c 0
 354.001 673 357.001 668 358.001 664 c 0
 359.001 660 361.001 650 361.001 642 c 0
 362.001 630 362.001 625 360.001 620 c 0
 359.001 617 358.001 611 358.001 608 c 0
 358.001 604 356.001 599 354.001 595 c 0
 353.001 592 350.001 588 347.001 587 c 0
 345.001 586 339.001 584 334.001 583 c 0
 326.001 581 323.001 581 310.001 582 c 0
 298.001 583 294.001 585 290.001 587 c 1
 288.001 589 285.001 593 284.001 595 c 0
 283.001 597 282.001 602 281.001 605 c 0
 280.001 609 278.001 613 277.001 615 c 0
 275.001 618 275.001 621 276.001 628 c 2
 276.001 633 278.001 643 279.001 651 c 1
 281.001 658 283.001 665 285.001 667 c 2
 286.001 669 290.001 673 295.001 675 c 0
138 679 m 0
 145 681 150 682 160 682 c 0
 170 682 175 681 178 679 c 2
 181 678 186 675 188 674 c 0
 191 672 194 669 195 668 c 1
 196 666 197 663 198 661 c 1
 198 658 200 653 201 648 c 0
 203 641 203 640 201 632 c 0
 200 628 199 619 198 613 c 0
 197 607 196 600 195 597 c 1
 193 594 191 592 187 591 c 0
 184 590 179 588 176 586 c 1
 173 585 167 583 163 582 c 0
 157 581 154 581 147 583 c 0
 142 584 136 585 133 585 c 0
 130 585 127 586 123 590 c 0
 118 595 118 595 117 623 c 0
 117 638 117 652 118 655 c 2
 118 657 120 662 122 665 c 2
 123 668 125 672 127 673 c 0
 129 674 134 677 138 679 c 0
EndSplineSet
Validated: 33
EndChar
StartChar: uni201C
Encoding: 8220 8220 195
Width: 478
GlyphClass: 2
Flags: W
LayerCount: 2
Fore
SplineSet
144 713 m 0
 152.536 722.312 154.449 724.397 161.419 724.397 c 0
 163.431 724.397 165.864 724.224 169 724 c 0
 177 724 191 723 199 723 c 0
 215 723 215 723 221 717 c 0
 227 711 227 711 227 699 c 0
 226 689 225 685 221 676 c 0
 218 670 214 660 212 654 c 0
 210 648 208 640 208 637 c 0
 208 635 207 630 206 627 c 0
 205 625 203 619 203 614 c 1
 202 608 201 604 196 598 c 0
 193 594 189 587 188 584 c 0
 187 580 186 571 185 564 c 1
 185 556 183 547 181 542 c 2
 180 537 178 531 177 530 c 1
 176 528 174 523 171 517 c 0
 169 512 165 506 164 504 c 1
 160 500 159 499 148 498 c 0
 141 497 131 495 127 494 c 0
 123 492.5 121 491.75 119 491.75 c 0
 117 491.75 115 492.5 111 494 c 0
 105 496 100 497 85 497 c 0
 71 497 67 497 64 499 c 0
 62 500 60 504 58 507 c 0
 56 510 55 515 55 518 c 0
 55 521 56 527 57 532 c 1
 59 537 61 543 61 544 c 1
 62 546 65 549 67 552 c 1
 70 554 72 558 74 561 c 1
 75 564 76 569 76 573 c 0
 76 577 77 583 79 587 c 2
 80 591 84 597 88 600 c 1
 91 604 95 609 96 612 c 0
 97 615 101 624 104 631 c 0
 108 639 111 645 112 646 c 1
 113 646 115 650 116 655 c 0
 117 659 120 667 123 672 c 0
 125 676 127 682 127 685 c 0
 127 688 128 693 130 696 c 2
 131 699 138 707 144 713 c 0
373.001 726 m 1
 375.001 728 379.001 729 381.001 729 c 0
 383.001 729 389.001 727 394.001 724 c 1
 402.001 721 404.001 718 406.001 714 c 0
 408.001 711 409.001 706 409.001 701 c 0
 409.001 697 408.001 692 407.001 690 c 0
 406.001 687 404.001 683 402.001 679 c 2
 401.001 675 399.001 671 398.001 669 c 1
 398.001 667 396.001 662 394.001 659 c 1
 392.001 654 391.001 648 391.001 639 c 0
 391.001 630 390.001 623 387.001 617 c 2
 386.001 613 382.001 604 378.001 597 c 0
 375.001 591 372.001 585 371.001 584 c 1
 371.001 584 370.001 580 370.001 575 c 0
 370.001 570 368.001 560 366.001 554 c 0
 364.001 547 362.001 536 361.001 530 c 0
 360.001 520 360.001 518 355.001 512 c 0
 352.001 509 345.001 504 341.001 502 c 0
 332.001 497 331.001 497 307.001 496 c 0
 293.001 496 277.001 495 270.001 495 c 0
 259.001 495 256.001 496 251.001 499 c 0
 247.001 501 244.001 504 242.001 506 c 1
 241.001 508 240.001 512 240.001 517 c 0
 240.001 521 241.001 527 242.001 531 c 0
 243.001 534 246.001 540 247.001 543 c 0
 248.001 546 251.001 552 252.001 555 c 0
 254.001 559 255.001 564 256.001 566 c 1
 256.001 569 258.001 574 260.001 577 c 0
 262.001 581 264.001 585 264.001 586 c 0
 264.001 587 267.001 593 270.001 600 c 2
 278.001 616 l 1
 280.001 618 283.001 623 286.001 626 c 0
 289.001 630 292.001 637 295.001 645 c 0
 297.001 652 300.001 660 302.001 664 c 0
 303.001 667 305.001 670 306.001 672 c 1
 307.001 673 309.001 679 311.001 684 c 0
 313.001 690 315.001 697 315.001 700 c 0
 315.001 702 317.001 707 318.001 711 c 1
 320.001 714 323.001 719 325.001 720 c 0
 329.001 723 332.001 723 349.001 723 c 0
 364.001 723 368.001 724 373.001 726 c 1
EndSplineSet
Validated: 1
EndChar
StartChar: uni2039
Encoding: 8249 8249 202
Width: 224
GlyphClass: 2
Flags: W
LayerCount: 2
Fore
SplineSet
116 351 m 1
 122 353 127 354 159 354 c 0
 188 354 196 353 200 352 c 1
 202 350 205 348 206 346 c 2
 208 344 209 340 209 336 c 0
 209 333 207 328 205 324 c 0
 203 321 200 315 199 312 c 1
 197 309 195 307 194 307 c 0
 193 307 191 302 189 296 c 0
 187 290 184 283 182 281 c 1
 181 279 179 273 179 269 c 0
 178 264 176 258 175 255 c 1
 173 252 170 248 167 245 c 0
 164 241 162 237 161 233 c 0
 160 229 158 224 156 222 c 1
 145 205 l 2
 142 199 138 192 138 190 c 2
 137 188 138 181 138 175 c 1
 139 168 141 160 143 156 c 2
 144 152 147 145 149 141 c 0
 151 136 154 131 156 129 c 1
 157 127 159 123 160 120 c 0
 161 117 164 111 167 107 c 0
 170 102 173 96 173 91 c 1
 174 86 176 80 178 76 c 0
 180 72 183 67 185 63 c 1
 188 60 191 56 193 54 c 0
 195 52 198 47 200 44 c 0
 202 41 205 35 206 31 c 2
 208 28 209 21 209 18 c 0
 209 14 208 9 206 6 c 0
 204 4 200 0 197 -1 c 2
 192 -4 190 -4 173 -4 c 0
 163 -4 146 -3 135 -3 c 0
 114 -2 114 -2 106 6 c 0
 101 11 96 18 93 25 c 0
 90 31 86 40 83 45 c 0
 80 50 76 56 74 59 c 1
 71 61 67 67 64 73 c 2
 57 87 l 2
 56 89 54 92 53 94 c 1
 51 96 50 99 49 102 c 1
 49 104 46 110 44 114 c 0
 41 118 37 125 34 131 c 0
 31 137 27 143 26 145 c 0
 25 147 23 151 21 153 c 1
 20 156 17 159 16 160 c 0
 14.5361 161.464 13.6074 163.464 13.6074 168.354 c 0
 13.6074 170.144 13.7324 172.32 14 175 c 0
 15 185 16 189 20 199 c 1
 24 205 29 216 32 224 c 0
 35 231 40 240 43 243 c 0
 46 246 50 252 53 257 c 0
 56 261 60 266 62 268 c 1
 64 269 67 273 68 276 c 2
 70 279 73 285 74 289 c 0
 75 293 78 300 81 305 c 2
 83 311 87 317 88 319 c 1
 90 321 91 323 91 324 c 1
 97 332 l 2
 100 336 104 341 106 344 c 0
 108 346 113 349 116 351 c 1
EndSplineSet
Validated: 1
EndChar
